<svg width="18" height="18" viewBox="0 0 18 18" fill="none" xmlns="http://www.w3.org/2000/svg">
<path fill-rule="evenodd" clip-rule="evenodd" d="M9.14258 4.75495C8.94771 4.56007 8.94727 4.24425 9.1416 4.04883L9.49159 3.69689C9.68663 3.50076 10.0038 3.50024 10.1995 3.69573L15.1507 8.64208C15.2498 8.74107 15.2986 8.87129 15.2973 9.00109C15.2986 9.13088 15.2498 9.26111 15.1507 9.3601L10.1995 14.3064C10.0038 14.5019 9.68663 14.5014 9.49159 14.3053L9.1416 13.9533C8.94727 13.7579 8.94771 13.4421 9.14258 13.2472L12.6398 9.74999H3.5C3.22386 9.74999 3 9.52614 3 9.24999V8.74999C3 8.47385 3.22386 8.24999 3.5 8.24999H12.6376L9.14258 4.75495Z" fill="black" />
</svg>
