<svg width="18" height="18" viewBox="0 0 18 18" fill="none" xmlns="http://www.w3.org/2000/svg">
<path fill-rule="evenodd" clip-rule="evenodd" d="M4 3.6965C4.17357 3.52293 4.44299 3.50364 4.63786 3.63864L4.70711 3.6965L9.65685 8.64624C9.83042 8.81981 9.84971 9.08923 9.71471 9.2841L9.65685 9.35335L4.70711 14.3031C4.53354 14.4767 4.26412 14.4959 4.06925 14.361L4 14.3031L3.64645 13.9495C3.47288 13.776 3.4536 13.5066 3.58859 13.3117L3.64645 13.2424L7.8893 8.99905L3.64645 4.75716C3.47288 4.58359 3.4536 4.31416 3.58859 4.1193L3.64645 4.05005L4 3.6965ZM9.7 3.6965C9.87357 3.52293 10.143 3.50364 10.3379 3.63864L10.4071 3.6965L15.3569 8.64624C15.5304 8.81981 15.5497 9.08923 15.4147 9.2841L15.3569 9.35335L10.4071 14.3031C10.2335 14.4767 9.96412 14.4959 9.76925 14.361L9.7 14.3031L9.34645 13.9495C9.17288 13.776 9.1536 13.5066 9.28859 13.3117L9.34645 13.2424L13.5893 8.99905L9.34645 4.75716C9.17288 4.58359 9.1536 4.31416 9.28859 4.1193L9.34645 4.05005L9.7 3.6965Z" fill="black" />
</svg>
