<svg width="18" height="18" viewBox="0 0 18 18" fill="none" xmlns="http://www.w3.org/2000/svg">
<path fill-rule="evenodd" clip-rule="evenodd" d="M9.15411 4.75493C9.34899 4.56006 9.34943 4.24423 9.15509 4.04881L8.8051 3.69687C8.61007 3.50075 8.29286 3.50023 8.09719 3.69571L3.14601 8.64206C3.04692 8.74105 2.99805 8.87128 2.99942 9.00107C2.99806 9.13087 3.04692 9.26109 3.14601 9.36008L8.09719 14.3064C8.29286 14.5019 8.61007 14.5014 8.8051 14.3053L9.15509 13.9533C9.34943 13.7579 9.34899 13.4421 9.15411 13.2472L5.65688 9.74998H14.5C14.7761 9.74998 15 9.52612 15 9.24998V8.74998C15 8.47384 14.7761 8.24998 14.5 8.24998H5.65907L9.15411 4.75493Z" fill="black" />
</svg>
