<svg width="18" height="18" viewBox="0 0 18 18" fill="none" xmlns="http://www.w3.org/2000/svg">
<path fill-rule="evenodd" clip-rule="evenodd" d="M4.99999 3.5C4.72385 3.5 4.49999 3.72386 4.49999 4V14C4.49999 14.2761 4.72385 14.5 4.99999 14.5H5.49999C5.77613 14.5 5.99999 14.2761 5.99999 14V4C5.99999 3.72386 5.77613 3.5 5.49999 3.5H4.99999ZM13.3 3.69645C13.1264 3.52288 12.857 3.50359 12.6621 3.63859L12.5929 3.69645L7.64313 8.64619C7.46957 8.81976 7.45028 9.08918 7.58528 9.28405L7.64313 9.3533L12.5929 14.303C12.7664 14.4766 13.0359 14.4959 13.2307 14.3609L13.3 14.303L13.6535 13.9495C13.8271 13.7759 13.8464 13.5065 13.7114 13.3116L13.6535 13.2424L9.41069 8.999L13.6535 4.75711C13.8271 4.58354 13.8464 4.31412 13.7114 4.11925L13.6535 4.05L13.3 3.69645Z" fill="black" />
</svg>
