<svg width="18" height="18" viewBox="0 0 18 18" fill="none" xmlns="http://www.w3.org/2000/svg">
<path fill-rule="evenodd" clip-rule="evenodd" d="M4 3.69645C4.17357 3.52288 4.44299 3.5036 4.63786 3.63859L4.70711 3.69645L9.65685 8.6462C9.83042 8.81976 9.84971 9.08919 9.71471 9.28406L9.65685 9.3533L4.70711 14.3031C4.53354 14.4766 4.26412 14.4959 4.06925 14.3609L4 14.3031L3.64645 13.9495C3.47288 13.7759 3.4536 13.5065 3.58859 13.3116L3.64645 13.2424L7.8893 8.999L3.64645 4.75711C3.47288 4.58354 3.4536 4.31412 3.58859 4.11925L3.64645 4.05L4 3.69645ZM9.7 3.69645C9.87357 3.52288 10.143 3.5036 10.3379 3.63859L10.4071 3.69645L15.3569 8.6462C15.5304 8.81976 15.5497 9.08919 15.4147 9.28406L15.3569 9.3533L10.4071 14.3031C10.2335 14.4766 9.96412 14.4959 9.76925 14.3609L9.7 14.3031L9.34645 13.9495C9.17288 13.7759 9.1536 13.5065 9.28859 13.3116L9.34645 13.2424L13.5893 8.999L9.34645 4.75711C9.17288 4.58354 9.1536 4.31412 9.28859 4.11925L9.34645 4.05L9.7 3.69645Z" fill="black" />
</svg>
