<svg width="18" height="18" viewBox="0 0 18 18" fill="none" xmlns="http://www.w3.org/2000/svg">
<path fill-rule="evenodd" clip-rule="evenodd" d="M14.0033 3.6965C13.8297 3.52293 13.5603 3.50364 13.3654 3.63864L13.2962 3.6965L8.34645 8.64624C8.17288 8.81981 8.1536 9.08923 8.28859 9.2841L8.34645 9.35335L13.2962 14.3031C13.4698 14.4767 13.7392 14.4959 13.9341 14.361L14.0033 14.3031L14.3569 13.9495C14.5304 13.776 14.5497 13.5066 14.4147 13.3117L14.3569 13.2424L10.114 8.99905L14.3569 4.75716C14.5304 4.58359 14.5497 4.31416 14.4147 4.1193L14.3569 4.05005L14.0033 3.6965ZM8.3033 3.6965C8.12973 3.52293 7.86031 3.50364 7.66544 3.63864L7.59619 3.6965L2.64645 8.64624C2.47288 8.81981 2.4536 9.08923 2.58859 9.2841L2.64645 9.35335L7.59619 14.3031C7.76976 14.4767 8.03919 14.4959 8.23405 14.361L8.3033 14.3031L8.65685 13.9495C8.83042 13.776 8.84971 13.5066 8.71471 13.3117L8.65685 13.2424L4.414 8.99905L8.65685 4.75716C8.83042 4.58359 8.84971 4.31416 8.71471 4.1193L8.65685 4.05005L8.3033 3.6965Z" fill="black" />
</svg>
