<svg width="18" height="18" viewBox="0 0 18 18" fill="none" xmlns="http://www.w3.org/2000/svg">
<path fill-rule="evenodd" clip-rule="evenodd" d="M9.15411 4.75495C9.34899 4.56007 9.34943 4.24425 9.15509 4.04883L8.8051 3.69689C8.61007 3.50076 8.29286 3.50024 8.09719 3.69573L3.14601 8.64208C3.04692 8.74107 2.99805 8.87129 2.99942 9.00109C2.99806 9.13088 3.04692 9.26111 3.14601 9.3601L8.09719 14.3064C8.29286 14.5019 8.61007 14.5014 8.8051 14.3053L9.15509 13.9533C9.34943 13.7579 9.34899 13.4421 9.15411 13.2472L5.65688 9.74999H14.5C14.7761 9.74999 15 9.52614 15 9.24999V8.74999C15 8.47385 14.7761 8.24999 14.5 8.24999H5.65907L9.15411 4.75495Z" fill="black" />
</svg>
