<svg width="18" height="18" viewBox="0 0 18 18" fill="none" xmlns="http://www.w3.org/2000/svg">
<path fill-rule="evenodd" clip-rule="evenodd" d="M14.0033 3.69645C13.8297 3.52288 13.5603 3.5036 13.3654 3.63859L13.2962 3.69645L8.34645 8.6462C8.17288 8.81976 8.1536 9.08919 8.28859 9.28406L8.34645 9.3533L13.2962 14.3031C13.4698 14.4766 13.7392 14.4959 13.9341 14.3609L14.0033 14.3031L14.3569 13.9495C14.5304 13.7759 14.5497 13.5065 14.4147 13.3116L14.3569 13.2424L10.114 8.999L14.3569 4.75711C14.5304 4.58354 14.5497 4.31412 14.4147 4.11925L14.3569 4.05L14.0033 3.69645ZM8.3033 3.69645C8.12973 3.52288 7.86031 3.5036 7.66544 3.63859L7.59619 3.69645L2.64645 8.6462C2.47288 8.81976 2.4536 9.08919 2.58859 9.28406L2.64645 9.3533L7.59619 14.3031C7.76976 14.4766 8.03919 14.4959 8.23405 14.3609L8.3033 14.3031L8.65685 13.9495C8.83042 13.7759 8.84971 13.5065 8.71471 13.3116L8.65685 13.2424L4.414 8.999L8.65685 4.75711C8.83042 4.58354 8.84971 4.31412 8.71471 4.11925L8.65685 4.05L8.3033 3.69645Z" fill="black" />
</svg>
