<svg width="18" height="18" viewBox="0 0 18 18" fill="none" xmlns="http://www.w3.org/2000/svg">
<path fill-rule="evenodd" clip-rule="evenodd" d="M9.99999 3.11151C12.004 3.56624 13.5 5.35841 13.5 7.5V12L14.4879 12.9879C14.605 13.105 14.605 13.295 14.4879 13.4121C14.4316 13.4684 14.3553 13.5 14.2757 13.5H3.72426C3.55857 13.5 3.42426 13.3657 3.42426 13.2C3.42426 13.1204 3.45586 13.0441 3.51212 12.9879L4.4707 12.0293C4.48946 12.0105 4.49999 11.9851 4.49999 11.9586V7.5C4.49999 5.35841 5.996 3.56624 7.99999 3.11151V1.95C7.99999 1.83954 8.08953 1.75 8.19999 1.75H9.79999C9.91045 1.75 9.99999 1.83954 9.99999 1.95V3.11151ZM6.49999 14.25H11.5C11.5 15.0784 10.8284 15.75 9.99999 15.75H7.99999C7.17156 15.75 6.49999 15.0784 6.49999 14.25Z" fill="black" />
</svg>
