<svg width="18" height="18" viewBox="0 0 18 18" fill="none" xmlns="http://www.w3.org/2000/svg">
<path fill-rule="evenodd" clip-rule="evenodd" d="M3 5.25C3 3.73122 4.23122 2.5 5.75 2.5H10.7451C11.1593 2.5 11.4951 2.83579 11.4951 3.25V11.7731C11.4951 12.1873 11.1593 12.5231 10.7451 12.5231H5.23848C4.83063 12.5231 4.5 12.8537 4.5 13.2615C4.5 13.6694 4.83063 14 5.23847 14H10.7451C11.7116 14 12.4951 13.2165 12.4951 12.25V5.25C12.4951 4.83579 12.8309 4.5 13.2451 4.5C13.6593 4.5 13.9951 4.83579 13.9951 5.25V12.25C13.9951 14.0449 12.54 15.5 10.7451 15.5H5.23847C4.0022 15.5 3 14.4978 3 13.2615V5.25ZM4.5 11.1477C4.73121 11.067 4.97971 11.0231 5.23848 11.0231H9.99511V4H5.75C5.05964 4 4.5 4.55964 4.5 5.25V11.1477Z" fill="black" />
</svg>
