<svg width="18" height="18" viewBox="0 0 18 18" fill="none" xmlns="http://www.w3.org/2000/svg">
<path fill-rule="evenodd" clip-rule="evenodd" d="M6.5 3.5C6.5 3.22386 6.72386 3 7 3H11C11.2761 3 11.5 3.22386 11.5 3.5V7C11.5 7.27614 11.2761 7.5 11 7.5H9.75V9H12.75C13.3023 9 13.75 9.44772 13.75 10V12H15C15.2761 12 15.5 12.2239 15.5 12.5V16C15.5 16.2761 15.2761 16.5 15 16.5H11C10.7239 16.5 10.5 16.2761 10.5 16V12.5C10.5 12.2239 10.7239 12 11 12H12.25V10.5L5.75 10.5L5.75 12H7C7.27614 12 7.5 12.2239 7.5 12.5V16C7.5 16.2761 7.27614 16.5 7 16.5H3C2.72386 16.5 2.5 16.2761 2.5 16V12.5C2.5 12.2239 2.72386 12 3 12H4.25L4.25 10C4.25 9.44771 4.69771 9 5.25 9H8.25V7.5H7C6.72386 7.5 6.5 7.27614 6.5 7V3.5ZM10 6V4.5H8V6H10ZM4 13.5H6V15H4V13.5ZM14 13.5H12V15H14V13.5Z" fill="#6B6B6B"/>
</svg>
