<svg width="18" height="18" viewBox="0 0 18 18" fill="none" xmlns="http://www.w3.org/2000/svg">
<path fill-rule="evenodd" clip-rule="evenodd" d="M11.5 13.5V11.3311C12.9945 10.4666 14 8.85071 14 7C14 4.23858 11.7614 2 9 2C6.23858 2 4 4.23858 4 7C4 8.85071 5.0055 10.4666 6.5 11.3311V13.5C6.5 13.7761 6.72386 14 7 14H11C11.2761 14 11.5 13.7761 11.5 13.5ZM10.7489 10.0327L10 10.4659V12.5H8V10.4659L7.25109 10.0327C6.20102 9.42525 5.5 8.29361 5.5 7C5.5 5.067 7.067 3.5 9 3.5C10.933 3.5 12.5 5.067 12.5 7C12.5 8.29361 11.799 9.42525 10.7489 10.0327Z" fill="black" />
<path d="M11 16V15H7V16C7 16.2761 7.22386 16.5 7.5 16.5H10.5C10.7761 16.5 11 16.2761 11 16Z" fill="black" />
</svg>
