<svg width="18" height="18" viewBox="0 0 18 18" fill="none" xmlns="http://www.w3.org/2000/svg">
<path d="M2.5 3C2.22386 3 2 3.22386 2 3.5V4.75C2 5.02614 2.22386 5.25 2.5 5.25H3.75C4.02614 5.25 4.25 5.02614 4.25 4.75V3.5C4.25 3.22386 4.02614 3 3.75 3H2.5Z" fill="#6B6B6B"/>
<path d="M6.5 3C6.22386 3 6 3.22386 6 3.5V4.75C6 5.02614 6.22386 5.25 6.5 5.25H15.5C15.7761 5.25 16 5.02614 16 4.75V3.5C16 3.22386 15.7761 3 15.5 3H6.5Z" fill="#6B6B6B"/>
<path d="M6.5 8C6.22386 8 6 8.22386 6 8.5V9.75C6 10.0261 6.22386 10.25 6.5 10.25H15.5C15.7761 10.25 16 10.0261 16 9.75V8.5C16 8.22386 15.7761 8 15.5 8H6.5Z" fill="#6B6B6B"/>
<path d="M6 13.5C6 13.2239 6.22386 13 6.5 13H15.5C15.7761 13 16 13.2239 16 13.5V14.75C16 15.0261 15.7761 15.25 15.5 15.25H6.5C6.22386 15.25 6 15.0261 6 14.75V13.5Z" fill="#6B6B6B"/>
<path d="M2 8.5C2 8.22386 2.22386 8 2.5 8H3.75C4.02614 8 4.25 8.22386 4.25 8.5V9.75C4.25 10.0261 4.02614 10.25 3.75 10.25H2.5C2.22386 10.25 2 10.0261 2 9.75V8.5Z" fill="#6B6B6B"/>
<path d="M2.5 13C2.22386 13 2 13.2239 2 13.5V14.75C2 15.0261 2.22386 15.25 2.5 15.25H3.75C4.02614 15.25 4.25 15.0261 4.25 14.75V13.5C4.25 13.2239 4.02614 13 3.75 13H2.5Z" fill="#6B6B6B"/>
</svg>
