<svg width="18" height="18" viewBox="0 0 18 18" fill="none" xmlns="http://www.w3.org/2000/svg">
<path fill-rule="evenodd" clip-rule="evenodd" d="M6.85355 3.14645L6 4.5H3C2.44772 4.5 2 4.94772 2 5.5V14C2 14.5523 2.44772 15 3 15H15C15.5523 15 16 14.5523 16 14V5.5C16 4.94772 15.5523 4.5 15 4.5H12L11.1464 3.14645C11.0527 3.05268 10.9255 3 10.7929 3H7.20711C7.0745 3 6.94732 3.05268 6.85355 3.14645ZM9 12C10.3807 12 11.5 10.8807 11.5 9.5C11.5 8.11929 10.3807 7 9 7C7.61929 7 6.5 8.11929 6.5 9.5C6.5 10.8807 7.61929 12 9 12Z" fill="black" />
</svg>
