<svg width="18" height="18" viewBox="0 0 18 18" fill="none" xmlns="http://www.w3.org/2000/svg">
<path d="M14.1265 4.93709C14.3218 4.74183 14.3218 4.42524 14.1265 4.22998L13.773 3.87643C13.5777 3.68117 13.2611 3.68116 13.0659 3.87643L9.00002 7.94229L4.93416 3.87643C4.7389 3.68117 4.42231 3.68117 4.22705 3.87643L3.8735 4.22998C3.67824 4.42524 3.67824 4.74183 3.8735 4.93709L7.93936 9.00295L3.8735 13.0688C3.67824 13.2641 3.67824 13.5807 3.8735 13.7759L4.22705 14.1295C4.42231 14.3247 4.7389 14.3247 4.93416 14.1295L9.00002 10.0636L13.0659 14.1295C13.2611 14.3247 13.5777 14.3247 13.773 14.1295L14.1265 13.7759C14.3218 13.5807 14.3218 13.2641 14.1265 13.0688L10.0607 9.00295L14.1265 4.93709Z" fill="black" />
</svg>
