<svg width="18" height="18" viewBox="0 0 18 18" fill="none" xmlns="http://www.w3.org/2000/svg">
<path d="M4.05026 4.75729C3.855 4.95255 3.855 5.26913 4.05026 5.46439L7.58587 9L4.05026 12.5356C3.85499 12.7309 3.85499 13.0475 4.05026 13.2427L4.75736 13.9498C4.95262 14.1451 5.26921 14.1451 5.46447 13.9498L9.00008 10.4142L12.5355 13.9497C12.7308 14.1449 13.0474 14.1449 13.2426 13.9497L13.9498 13.2426C14.145 13.0473 14.145 12.7307 13.9498 12.5355L10.4143 9L13.9497 5.46454C14.145 5.26928 14.145 4.9527 13.9497 4.75744L13.2426 4.05033C13.0474 3.85507 12.7308 3.85507 12.5355 4.05033L9.00008 7.58579L5.46447 4.05018C5.26921 3.85492 4.95263 3.85492 4.75737 4.05018L4.05026 4.75729Z" fill="black" />
</svg>
