<svg width="18" height="18" viewBox="0 0 18 18" fill="none" xmlns="http://www.w3.org/2000/svg">
<path fill-rule="evenodd" clip-rule="evenodd" d="M12.0625 1.60986L13.7528 4.24914L16.3921 5.93943L15.721 9.0009L16.3921 12.0624L13.7528 13.7527L12.0625 16.3919L9.00102 15.7209L5.93955 16.3919L4.24926 13.7527L1.60999 12.0624L2.28102 9.0009L1.60999 5.93943L4.24926 4.24914L5.93955 1.60986L9.00102 2.2809L12.0625 1.60986ZM11.2971 3.45762L9.00102 3.9609L6.70492 3.45762L5.4372 5.43708L3.45774 6.7048L3.96102 9.0009L3.45774 11.297L5.4372 12.5647L6.70492 14.5442L9.00102 14.0409L11.2971 14.5442L12.5648 12.5647L14.5443 11.297L14.041 9.0009L14.5443 6.7048L12.5648 5.43708L11.2971 3.45762ZM11.8953 6.44544L12.956 7.5061L8.00623 12.4559L5.00102 9.45065L6.06168 8.38999L8.00623 10.3345L11.8953 6.44544Z" fill="black" />
</svg>
