<svg width="18" height="18" viewBox="0 0 18 18" fill="none" xmlns="http://www.w3.org/2000/svg">
<path fill-rule="evenodd" clip-rule="evenodd" d="M3.60048 3.25C4.29836 3.25 4.90905 3.6364 5.40211 4.0815C5.90997 4.53996 6.40332 5.16132 6.87491 5.83968C7.59126 6.87012 8.32628 8.1371 9.02787 9.33073C9.7354 8.13993 10.4695 6.86659 11.1605 5.84702C11.6184 5.17136 12.0925 4.55173 12.5745 4.09421C13.0361 3.65616 13.6256 3.25 14.3101 3.25C15.5482 3.25 15.9262 4.57642 15.9867 5.58262C16.0513 6.65825 15.875 8.03717 15.5814 9.3697C15.2863 10.7093 14.8588 12.0641 14.3861 13.1004C14.0185 13.9061 13.4091 15.1667 12.3629 15.1667C11.466 15.1667 10.7414 14.4715 10.1977 13.8331C9.80494 13.3719 9.40821 12.8077 9.01375 12.1964C8.60196 12.8137 8.18295 13.3837 7.76227 13.8495C7.15563 14.5213 6.38047 15.1667 5.47813 15.1667C4.42244 15.1667 3.86459 13.8928 3.51768 13.085C3.07322 12.0502 2.67332 10.6973 2.39663 9.36033C2.12114 8.02923 1.9558 6.6566 2.01043 5.58927C2.06007 4.61932 2.37848 3.25 3.60048 3.25ZM8.14318 10.7824C7.29452 9.35803 6.46763 7.88168 5.64329 6.6959C5.19596 6.05244 4.77914 5.53991 4.39699 5.19493C4.06551 4.89569 3.83011 4.78596 3.67972 4.7579C3.67754 4.76224 3.67524 4.76693 3.67281 4.77199C3.59997 4.92382 3.53162 5.21364 3.50847 5.66594C3.46313 6.55173 3.60203 7.78327 3.8655 9.05634C4.12777 10.3236 4.50152 11.5748 4.89593 12.4931C5.06133 12.8782 5.25801 13.3557 5.56862 13.6566C5.78669 13.6114 6.14329 13.4042 6.64902 12.8442C7.12286 12.3195 7.62206 11.6053 8.14318 10.7824ZM9.90151 10.7912C10.4104 11.6166 10.8906 12.3332 11.3397 12.8605C11.585 13.1486 11.9072 13.5496 12.2939 13.6557C12.6345 13.3597 12.8394 12.8766 13.0214 12.4778C13.4397 11.5609 13.838 10.3116 14.1166 9.04697C14.3967 7.77533 14.5421 6.55009 14.4894 5.67259C14.4721 5.38457 14.4577 4.99902 14.2826 4.75174C14.1776 4.7642 13.958 4.84923 13.6071 5.18222C13.2426 5.52814 12.8401 6.04241 12.4021 6.68856C11.5886 7.88898 10.7725 9.35606 9.90151 10.7912Z" fill="black" />
</svg>
