<svg width="18" height="18" viewBox="0 0 18 18" fill="none" xmlns="http://www.w3.org/2000/svg">
<path fill-rule="evenodd" clip-rule="evenodd" d="M3.60045 3.25C4.29833 3.25 4.90902 3.6364 5.40208 4.0815C5.90994 4.53996 6.40329 5.16132 6.87488 5.83968C7.59123 6.87012 8.32625 8.1371 9.02784 9.33073C9.73537 8.13993 10.4694 6.86659 11.1604 5.84702C11.6183 5.17136 12.0924 4.55173 12.5745 4.09421C13.0361 3.65616 13.6256 3.25 14.31 3.25C15.5482 3.25 15.9262 4.57642 15.9866 5.58262C16.0513 6.65825 15.875 8.03717 15.5814 9.3697C15.2863 10.7093 14.8588 12.0641 14.386 13.1004C14.0184 13.9061 13.409 15.1667 12.3628 15.1667C11.466 15.1667 10.7414 14.4715 10.1977 13.8331C9.80491 13.3719 9.40818 12.8077 9.01372 12.1964C8.60193 12.8137 8.18292 13.3837 7.76224 13.8495C7.1556 14.5213 6.38044 15.1667 5.4781 15.1667C4.4224 15.1667 3.86455 13.8928 3.51764 13.085C3.07319 12.0502 2.67329 10.6973 2.3966 9.36033C2.12111 8.02923 1.95577 6.6566 2.0104 5.58927C2.06004 4.61932 2.37845 3.25 3.60045 3.25ZM8.14315 10.7824C7.29449 9.35803 6.4676 7.88168 5.64325 6.6959C5.19593 6.05244 4.77911 5.53991 4.39696 5.19493C4.06548 4.89569 3.83008 4.78596 3.67969 4.7579C3.67751 4.76224 3.67521 4.76693 3.67278 4.77199C3.59994 4.92382 3.53159 5.21364 3.50844 5.66594C3.4631 6.55173 3.602 7.78327 3.86547 9.05634C4.12774 10.3236 4.50149 11.5748 4.8959 12.4931C5.0613 12.8782 5.25798 13.3557 5.56859 13.6566C5.78666 13.6114 6.14326 13.4042 6.64899 12.8442C7.12283 12.3195 7.62203 11.6053 8.14315 10.7824ZM9.90148 10.7912C10.4104 11.6166 10.8906 12.3332 11.3397 12.8605C11.585 13.1486 11.9071 13.5496 12.2939 13.6557C12.6345 13.3597 12.8394 12.8766 13.0213 12.4778C13.4396 11.5609 13.8379 10.3116 14.1165 9.04697C14.3967 7.77533 14.5421 6.55009 14.4893 5.67259C14.472 5.38457 14.4577 4.99902 14.2826 4.75174C14.1776 4.7642 13.958 4.84923 13.6071 5.18222C13.2426 5.52814 12.84 6.04241 12.4021 6.68856C11.5886 7.88898 10.7724 9.35606 9.90148 10.7912Z" fill="black" />
</svg>
