<svg width="18" height="18" viewBox="0 0 18 18" fill="none" xmlns="http://www.w3.org/2000/svg">
<path fill-rule="evenodd" clip-rule="evenodd" d="M3.5 14.5V3.5H14.5V14.5H3.5ZM2 3C2 2.44772 2.44772 2 3 2H15C15.5523 2 16 2.44772 16 3V15C16 15.5523 15.5523 16 15 16H3C2.44772 16 2 15.5523 2 15V3ZM8.25002 12.5954C8.25002 12.7334 8.36194 12.8454 8.50002 12.8454H9.50002C9.63809 12.8454 9.75002 12.7334 9.75002 12.5954V8.84535H11.2356C11.4443 8.84535 11.5611 8.60493 11.4322 8.4409L9.1966 5.59554C9.0965 5.46815 8.90353 5.46815 8.80344 5.59554L6.5678 8.4409C6.43892 8.60493 6.55577 8.84535 6.76438 8.84535H8.25002V12.5954Z" fill="black" />
</svg>
