<svg width="18" height="18" viewBox="0 0 18 18" fill="none" xmlns="http://www.w3.org/2000/svg">
<path d="M7.68285 2C8.25888 2 8.7453 2.46988 8.8149 3.09638L9.36533 7.99988H13.1999C13.6773 7.99988 14.1352 8.2073 14.4728 8.57651C14.8103 8.94572 15 9.44648 15 9.96863V12.0004C15 13.0611 14.6147 14.0785 13.9289 14.8285C13.2431 15.5786 12.3129 16 11.343 16H9.52534C8.84081 16 8.16421 15.8398 7.54093 15.5303C6.91764 15.2208 6.3621 14.769 5.91156 14.2054L3.21544 10.8331C3.1394 10.738 3.08141 10.6272 3.04483 10.5074C3.00826 10.3875 2.99384 10.2609 3.0024 10.1348C3.01096 10.0088 3.04233 9.88589 3.0947 9.77324C3.14707 9.66059 3.21938 9.56045 3.30744 9.47863C3.50107 9.29842 3.74334 9.19255 3.9972 9.17722C4.25106 9.16189 4.50252 9.23795 4.71311 9.39375L6.6732 10.8419V3.10425C6.6732 2.49438 7.12522 2 7.68285 2Z" fill="black" />
</svg>
