<svg width="18" height="18" viewBox="0 0 18 18" fill="none" xmlns="http://www.w3.org/2000/svg">
<path fill-rule="evenodd" clip-rule="evenodd" d="M2.23044 3.5382L15.1912 16.499C15.3855 16.6289 15.6508 16.6081 15.8223 16.4365L16.1759 16.083C16.3712 15.8877 16.3712 15.5711 16.1759 15.3759L16 15.2V9.24998C16 9.11191 15.8881 8.99998 15.75 8.99998H14.75C14.6119 8.99998 14.5 9.11191 14.5 9.24998V13.7L8.75488 7.95486V6.74057C8.75488 6.46963 8.98826 6.24998 9.26193 6.24998H12V8.49559C12 8.77416 12.1719 8.85845 12.3922 8.67699L15.8578 5.82298C16.0744 5.6446 16.0781 5.35845 15.8578 5.17699L12.3922 2.32298C12.1756 2.1446 12 2.21577 12 2.50438V4.74998H8.75293C7.92289 4.74998 7.25 5.41942 7.25 6.25301V6.44998L3.35355 2.55354C3.15829 2.35827 2.84171 2.35827 2.64645 2.55354L2.29289 2.90709C2.12132 3.07866 2.10051 3.3439 2.23044 3.5382ZM2.35299 5.35411C2.22291 5.22361 2 5.31573 2 5.49998V15.5C2 15.7761 2.22386 16 2.5 16H12.3916C12.6143 16 12.7259 15.7307 12.5684 15.5732L11.6416 14.6464C11.5479 14.5527 11.4207 14.5 11.2881 14.5H3.5V6.71145C3.5 6.57912 3.44754 6.45218 3.35412 6.35846L2.35299 5.35411ZM7.59142 10.483C7.46543 10.357 7.25 10.4462 7.25 10.6244V12.7626C7.25 12.8959 7.36809 13.004 7.4985 13.004H8.50638C8.64362 13.004 8.75488 12.8838 8.75488 12.7567V11.8535C8.75488 11.7209 8.7022 11.5938 8.60844 11.5L7.59142 10.483Z" fill="black" />
</svg>
