<svg width="18" height="18" viewBox="0 0 18 18" fill="none" xmlns="http://www.w3.org/2000/svg">
<path fill-rule="evenodd" clip-rule="evenodd" d="M6 6.91865V13.9998H12V6.91865L14.1824 7.64611L15.1001 5.58123L12.4061 3.89748L11.672 3.71395C10.278 5.33219 7.72204 5.33219 6.32803 3.71395L5.59389 3.89748L2.8999 5.58123L3.81762 7.64611L6 6.91865ZM4.98707 2.50787L1.3683 4.7696C1.15705 4.90163 1.07522 5.16903 1.1764 5.39667L2.81564 9.08497C2.85628 9.17641 2.92132 9.25004 3.00001 9.30112C3.12379 9.38148 3.28131 9.40602 3.43066 9.35624L4.50001 8.99979V14.9998C4.50001 15.2759 4.72386 15.4998 5.00001 15.4998H13C13.2761 15.4998 13.5 15.2759 13.5 14.9998V8.99979L14.5694 9.35624C14.7187 9.40602 14.8762 9.38148 15 9.30112C15.0787 9.25004 15.1437 9.17641 15.1844 9.08497L16.8236 5.39667C16.9248 5.16903 16.843 4.90163 16.6317 4.7696L13.0129 2.50787C13.0044 2.50252 12.995 2.49854 12.9852 2.49609L11.4467 2.11146C11.1825 2.04542 10.9067 2.16313 10.7716 2.39955C9.98827 3.77032 8.01174 3.77032 7.22844 2.39955C7.09334 2.16313 6.81749 2.04542 6.55333 2.11146L5.0148 2.49609C5.005 2.49854 4.99564 2.50252 4.98707 2.50787Z" fill="black" />
</svg>
