<svg width="18" height="18" viewBox="0 0 18 18" fill="none" xmlns="http://www.w3.org/2000/svg">
<path fill-rule="evenodd" clip-rule="evenodd" d="M6 6.9189V14H12V6.9189L14.1824 7.64636L15.1001 5.58147L12.4061 3.89773L11.672 3.71419C10.278 5.33243 7.72204 5.33243 6.32803 3.71419L5.59389 3.89773L2.8999 5.58147L3.81762 7.64636L6 6.9189ZM4.98707 2.50812L1.3683 4.76985C1.15705 4.90188 1.07522 5.16927 1.1764 5.39692L2.81564 9.08521C2.85628 9.17665 2.92132 9.25029 3.00001 9.30137C3.12379 9.38173 3.28131 9.40626 3.43066 9.35648L4.50001 9.00003V15C4.50001 15.2762 4.72386 15.5 5.00001 15.5H13C13.2761 15.5 13.5 15.2762 13.5 15V9.00003L14.5694 9.35648C14.7187 9.40626 14.8762 9.38173 15 9.30137C15.0787 9.25029 15.1437 9.17665 15.1844 9.08521L16.8236 5.39692C16.9248 5.16927 16.843 4.90188 16.6317 4.76985L13.0129 2.50812C13.0044 2.50276 12.995 2.49879 12.9852 2.49634L11.4467 2.1117C11.1825 2.04566 10.9067 2.16338 10.7716 2.39979C9.98827 3.77057 8.01174 3.77057 7.22844 2.39979C7.09334 2.16338 6.81749 2.04566 6.55333 2.1117L5.0148 2.49634C5.005 2.49879 4.99564 2.50276 4.98707 2.50812Z" fill="black" />
</svg>
