<svg width="18" height="18" viewBox="0 0 18 18" fill="none" xmlns="http://www.w3.org/2000/svg">
<path fill-rule="evenodd" clip-rule="evenodd" d="M5.25 4.5C4.83579 4.5 4.5 4.83579 4.5 5.25C4.5 5.66421 4.83579 6 5.25 6C5.66421 6 6 5.66421 6 5.25C6 4.83579 5.66421 4.5 5.25 4.5ZM3 5.25C3 4.00736 4.00736 3 5.25 3C6.22966 3 7.06309 3.62611 7.37197 4.5H11.125C12.7128 4.5 14 5.78718 14 7.375C14 8.96282 12.7128 10.25 11.125 10.25H6.875C6.11561 10.25 5.5 10.8656 5.5 11.625C5.5 12.3844 6.11561 13 6.875 13H10.6178C10.9267 12.1261 11.7601 11.5 12.7398 11.5C13.9824 11.5 14.9898 12.5074 14.9898 13.75C14.9898 14.9926 13.9824 16 12.7398 16C11.7601 16 10.9267 15.3739 10.6178 14.5H6.875C5.28718 14.5 4 13.2128 4 11.625C4 10.0372 5.28718 8.75 6.875 8.75H11.125C11.8844 8.75 12.5 8.13439 12.5 7.375C12.5 6.61561 11.8844 6 11.125 6H7.37197C7.06309 6.87389 6.22966 7.5 5.25 7.5C4.00736 7.5 3 6.49264 3 5.25ZM12.7398 13C12.3256 13 11.9898 13.3358 11.9898 13.75C11.9898 14.1642 12.3256 14.5 12.7398 14.5C13.154 14.5 13.4898 14.1642 13.4898 13.75C13.4898 13.3358 13.154 13 12.7398 13Z" fill="black" />
</svg>
