<svg width="18" height="18" viewBox="0 0 18 18" fill="none" xmlns="http://www.w3.org/2000/svg">
<path fill-rule="evenodd" clip-rule="evenodd" d="M8.25 9.7611L3.5 6.59443V9.19304L6 10.8597V13.3201L8.25 14.5801V9.7611ZM9.75 9.7611V14.5801L12 13.3201V10.8597L14.5 9.19304V6.59443L9.75 9.7611ZM11.4644 4.09939L9 5.85971L6.53555 4.09939L4.32145 5.33929L9 8.45832L13.6785 5.33929L11.4644 4.09939ZM8.5114 1.27373C8.81495 1.10374 9.18505 1.10374 9.4886 1.27373L15.4886 4.63373C15.8044 4.81059 16 5.14429 16 5.50624V12.2132C16 12.5751 15.8044 12.9088 15.4886 13.0857L9.4886 16.4457C9.18505 16.6157 8.81495 16.6157 8.5114 16.4457L2.5114 13.0857C2.19559 12.9088 2 12.5751 2 12.2132V5.50624C2 5.14429 2.19559 4.81059 2.5114 4.63373L8.5114 1.27373Z" fill="black" />
</svg>
