<svg width="18" height="18" viewBox="0 0 18 18" fill="none" xmlns="http://www.w3.org/2000/svg">
<path d="M2.75 3C2.61193 3 2.5 3.11193 2.5 3.25V5C2.5 5.13807 2.61193 5.25 2.75 5.25H7V14.75C7 14.8881 7.11193 15 7.25 15H8.75C8.88807 15 9 14.8881 9 14.75V5.25H13.25C13.3881 5.25 13.5 5.13807 13.5 5V3.25C13.5 3.11193 13.3881 3 13.25 3H2.75Z" fill="#6B6B6B"/>
<path d="M13.5 11.25C13.5 11.1119 13.6119 11 13.75 11H14.75C14.8881 11 15 11.1119 15 11.25V14.75C15 14.8881 14.8881 15 14.75 15H13.75C13.6119 15 13.5 14.8881 13.5 14.75V11.25Z" fill="#6B6B6B"/>
<path d="M14.25 8.75C13.8358 8.75 13.5 9.08579 13.5 9.5C13.5 9.91421 13.8358 10.25 14.25 10.25C14.6642 10.25 15 9.91421 15 9.5C15 9.08579 14.6642 8.75 14.25 8.75Z" fill="#6B6B6B"/>
</svg>
