<svg width="18" height="18" viewBox="0 0 18 18" fill="none" xmlns="http://www.w3.org/2000/svg">
<path fill-rule="evenodd" clip-rule="evenodd" d="M7.68123 13.1995L5.87974 8.25H4.12453L7.68123 13.1995ZM7.47601 8.25L8.99523 12.424L10.5145 8.25H7.47601ZM10.3507 13.0856L13.8255 8.25H12.1107L10.3507 13.0856ZM8.01494 15.3027L7.95536 15.281L7.96816 15.2459L1.72364 7.65639C1.58951 7.49337 1.57222 7.26368 1.68042 7.08242L4.56883 2.24372C4.65906 2.09257 4.82212 2 4.99815 2H13.0019C13.1779 2 13.341 2.09257 13.4312 2.24372L16.3196 7.08242C16.4278 7.26368 16.4105 7.49337 16.2764 7.65639L9.38614 16.0307C9.21068 16.244 8.89559 16.2746 8.68235 16.0992C8.65738 16.0786 8.63447 16.0557 8.61392 16.0307L8.01494 15.3027ZM7.40413 3.5H5.83217L3.84039 6.75H5.52774L7.40413 3.5ZM7.25979 6.75H10.746L9.0029 3.73085L7.25979 6.75ZM10.6017 3.5L12.4781 6.75H14.1097L12.1179 3.5H10.6017Z" fill="black" />
</svg>
