<svg width="18" height="18" viewBox="0 0 18 18" fill="none" xmlns="http://www.w3.org/2000/svg">
<path d="M3 8.75001C3 8.47386 3.22386 8.25001 3.5 8.25001H14.5C14.7761 8.25001 15 8.47386 15 8.75001V9.25001C15 9.52615 14.7761 9.75001 14.5 9.75001H3.5C3.22386 9.75001 3 9.52615 3 9.25001V8.75001Z" fill="black" />
<path d="M10.5 4.5C10.5 5.32843 9.82843 6 9 6C8.17157 6 7.5 5.32843 7.5 4.5C7.5 3.67157 8.17157 3 9 3C9.82843 3 10.5 3.67157 10.5 4.5Z" fill="black" />
<path d="M10.5 13.5C10.5 14.3284 9.82843 15 9 15C8.17157 15 7.5 14.3284 7.5 13.5C7.5 12.6716 8.17157 12 9 12C9.82843 12 10.5 12.6716 10.5 13.5Z" fill="black" />
</svg>
