<svg width="18" height="18" viewBox="0 0 18 18" fill="none" xmlns="http://www.w3.org/2000/svg">
<path fill-rule="evenodd" clip-rule="evenodd" d="M3.5 14.5H14.5V6.49996H12.75C12.6119 6.49996 12.5 6.38803 12.5 6.24996V5.24996C12.5 5.11189 12.6119 4.99996 12.75 4.99996H15.5C15.7761 4.99996 16 5.22381 16 5.49996V15.5C16 15.7761 15.7761 16 15.5 16H2.5C2.22386 16 2 15.7761 2 15.5V5.49996C2 5.22381 2.22386 4.99996 2.5 4.99996H5.25C5.38807 4.99996 5.5 5.11189 5.5 5.24996V6.24996C5.5 6.38803 5.38807 6.49996 5.25 6.49996H3.5V14.5ZM11.9367 8.39208L9.30997 11.6974C9.13799 11.9138 8.85883 11.9139 8.68672 11.6974L6.05997 8.39208C5.88799 8.17568 5.97485 7.99996 6.25426 7.99996H8.24834V2.34344C8.24834 2.19206 8.35924 2.08948 8.49604 2.08948H9.50065C9.63064 2.08948 9.74834 2.20318 9.74834 2.34344V7.99996H11.7424C12.0176 7.99996 12.1088 8.17552 11.9367 8.39208Z" fill="black" />
</svg>
