<svg width="18" height="18" viewBox="0 0 18 18" fill="none" xmlns="http://www.w3.org/2000/svg">
<path fill-rule="evenodd" clip-rule="evenodd" d="M3.5 14.5H14.5V6.5H12.75C12.6119 6.5 12.5 6.38807 12.5 6.25V5.25C12.5 5.11193 12.6119 5 12.75 5H15.5C15.7761 5 16 5.22386 16 5.5V15.5C16 15.7761 15.7761 16 15.5 16H2.5C2.22386 16 2 15.7761 2 15.5V5.5C2 5.22386 2.22386 5 2.5 5H5.25C5.38807 5 5.5 5.11193 5.5 5.25V6.25C5.5 6.38807 5.38807 6.5 5.25 6.5H3.5V14.5ZM11.9367 8.39212L9.30997 11.6974C9.13799 11.9138 8.85883 11.914 8.68672 11.6974L6.05997 8.39212C5.88799 8.17572 5.97485 8 6.25426 8H8.24834V2.34349C8.24834 2.19211 8.35924 2.08952 8.49604 2.08952H9.50065C9.63064 2.08952 9.74834 2.20323 9.74834 2.34349V8H11.7424C12.0176 8 12.1088 8.17556 11.9367 8.39212Z" fill="black" />
</svg>
