<svg width="18" height="18" viewBox="0 0 18 18" fill="none" xmlns="http://www.w3.org/2000/svg">
<path fill-rule="evenodd" clip-rule="evenodd" d="M13.295 6.09617L14.3557 5.0355L12.9414 3.62129L11.8808 4.68195L13.295 6.09617ZM12.2343 7.15683L10.8201 5.74261L4.45616 12.1066L4.10261 13.8743L5.87038 13.5208L12.2343 7.15683ZM13.6486 2.20708L15.7699 4.3284C16.1604 4.71892 16.1604 5.35209 15.7699 5.74261L6.57526 14.9372L2.92717 15.267C2.81716 15.2769 2.71992 15.1958 2.70998 15.0858C2.7089 15.0738 2.7089 15.0618 2.70998 15.0498L3.03973 11.4017L12.2343 2.20708C12.6249 1.81655 13.258 1.81655 13.6486 2.20708Z" fill="black" />
</svg>
