<svg width="18" height="18" viewBox="0 0 18 18" fill="none" xmlns="http://www.w3.org/2000/svg">
<path fill-rule="evenodd" clip-rule="evenodd" d="M8.64348 11.4308C9.01333 11.2809 9.35959 11.0819 9.67688 10.8417C9.91855 11.0593 10.1859 11.2443 10.4749 11.3895L10.3375 11.6485C10.2141 11.8809 10.2217 12.161 10.3573 12.3866C10.4929 12.6121 10.7368 12.75 11 12.75H11.4011C11.3946 13.0618 11.4142 13.3997 11.4768 13.7313C11.6034 14.4016 11.9393 15.1939 12.7612 15.5504C13.0652 15.6823 13.4185 15.5428 13.5504 15.2388C13.6823 14.9348 13.5427 14.5815 13.2387 14.4496C12.9542 14.3261 12.7522 14.0184 12.656 13.5087C12.6087 13.2584 12.595 12.9945 12.6015 12.75H13C13.2588 12.75 13.4994 12.6165 13.6364 12.3969C13.7733 12.1773 13.7874 11.9026 13.6735 11.6701L13.5339 11.3851C14.8774 10.7055 15.75 9.16349 15.75 7.5C15.75 5.26542 14.1754 3.25 12 3.25C11.5983 3.25 11.217 3.31875 10.8623 3.44494C10.014 2.1308 8.62592 1.25 7 1.25C4.29604 1.25 2.25 3.68599 2.25 6.5C2.25 8.55456 3.34069 10.4076 4.98181 11.2582L4.31974 12.6842C4.21191 12.9164 4.23003 13.1876 4.36779 13.4035C4.50556 13.6194 4.74393 13.75 5 13.75H5.9843C5.98241 13.9014 5.96635 14.058 5.92978 14.2068C5.84343 14.5582 5.66282 14.8133 5.31021 14.9308C4.99584 15.0356 4.82594 15.3754 4.93073 15.6898C5.03552 16.0041 5.37531 16.174 5.68968 16.0693C6.53707 15.7868 6.93979 15.1252 7.09511 14.4932C7.15666 14.2428 7.18238 13.9894 7.18437 13.75H8.5C8.75211 13.75 8.98735 13.6233 9.12613 13.4129C9.26491 13.2024 9.28867 12.9363 9.18936 12.7046L8.64348 11.4308ZM7 2.75C5.28568 2.75 3.75 4.34345 3.75 6.5C3.75 8.65655 5.28568 10.25 7 10.25C8.71432 10.25 10.25 8.65655 10.25 6.5C10.25 4.34345 8.71432 2.75 7 2.75ZM11.75 6.5C11.75 7.7108 11.3712 8.85161 10.7242 9.7585C11.0999 10.0735 11.5479 10.25 12 10.25C13.1384 10.25 14.25 9.13141 14.25 7.5C14.25 5.86859 13.1384 4.75 12 4.75C11.8316 4.75 11.6637 4.7745 11.5 4.82152C11.6626 5.35274 11.75 5.91829 11.75 6.5ZM6.40725 11.75H7.14831L7.3626 12.25H6.17511L6.40725 11.75Z" fill="black" />
</svg>
