<svg width="18" height="18" viewBox="0 0 18 18" fill="none" xmlns="http://www.w3.org/2000/svg">
<path d="M2.5 3C2.22386 3 2 3.22386 2 3.5V14.5C2 14.7761 2.22386 15 2.5 15H3.5C3.77614 15 4 14.7761 4 14.5V10H9V14.5C9 14.7761 9.22386 15 9.5 15H10.5C10.7761 15 11 14.7761 11 14.5V3.5C11 3.22386 10.7761 3 10.5 3H9.5C9.22386 3 9 3.22386 9 3.5V8H4V3.5C4 3.22386 3.77614 3 3.5 3H2.5Z" fill="#6B6B6B"/>
<path fill-rule="evenodd" clip-rule="evenodd" d="M15.6285 15.15H14.4232V12.5182L14.4321 12.1093L14.4346 12.0327C14.4127 12.0523 14.3935 12.0687 14.377 12.0818L13.7678 12.5714L13.1433 11.7918L14.6819 10.5668H15.6285V15.15Z" fill="#6B6B6B"/>
</svg>
