<svg width="18" height="18" viewBox="0 0 18 18" fill="none" xmlns="http://www.w3.org/2000/svg">
<path fill-rule="evenodd" clip-rule="evenodd" d="M15.0104 7.03729L13.2764 8.77131L9.74083 5.23577L11.4729 3.50372C10.5891 3.51268 9.70806 3.85433 9.03373 4.52866C7.78693 5.77546 7.67743 7.72888 8.70524 9.0998L3.73042 14.0746L4.43753 14.7817L9.41234 9.8069C10.7833 10.8347 12.7367 10.7252 13.9835 9.47841C14.6578 8.80408 14.9995 7.92305 15.0084 7.03927L15.0104 7.03729ZM16.3418 5.70592C16.4439 6.09211 16.3634 5.80344 16.3734 5.84546C16.7602 7.47741 16.3171 9.26607 15.0441 10.5391C13.5943 11.9889 11.4757 12.3622 9.68147 11.6591L4.79195 16.5486C4.59621 16.7444 4.28546 16.751 4.09071 16.5562L1.95592 14.4214C1.76438 14.2299 1.77156 13.9121 1.96353 13.7202L6.85304 8.83067C6.14993 7.03642 6.52327 4.9178 7.97307 3.468C9.27695 2.16412 11.136 1.73977 12.7994 2.17725L12.8062 2.17038C13.0876 2.25243 13.3467 2.34674 13.5837 2.4533C13.7953 2.54847 14.0003 2.65837 14.1986 2.78301C14.2144 2.79296 14.2381 2.80809 14.2695 2.82841L12.0036 5.09435C11.9255 5.17246 11.9255 5.29909 12.0036 5.37719L13.1349 6.50856C13.213 6.58667 13.3397 6.58667 13.4178 6.50856L15.6837 4.24262C15.7703 4.32922 15.8711 4.50049 15.9862 4.75644C16.1012 5.01239 16.2197 5.32889 16.3418 5.70592Z" fill="black" />
</svg>
