<svg width="18" height="18" viewBox="0 0 18 18" fill="none" xmlns="http://www.w3.org/2000/svg">
<path fill-rule="evenodd" clip-rule="evenodd" d="M15.0104 7.03731L13.2764 8.77132L9.74083 5.23579L11.4729 3.50374C10.5891 3.5127 9.70806 3.85435 9.03373 4.52868C7.78693 5.77548 7.67743 7.7289 8.70524 9.09981L3.73042 14.0746L4.43753 14.7817L9.41234 9.80692C10.7833 10.8347 12.7367 10.7252 13.9835 9.47843C14.6578 8.8041 14.9995 7.92307 15.0084 7.03929L15.0104 7.03731ZM16.3418 5.70594C16.4439 6.09212 16.3634 5.80346 16.3734 5.84548C16.7602 7.47743 16.3171 9.26609 15.0441 10.5391C13.5943 11.9889 11.4757 12.3622 9.68147 11.6591L4.79195 16.5486C4.59621 16.7444 4.28546 16.751 4.09071 16.5562L1.95592 14.4214C1.76438 14.2299 1.77156 13.9122 1.96353 13.7202L6.85304 8.83069C6.14993 7.03643 6.52327 4.91782 7.97307 3.46802C9.27695 2.16414 11.136 1.73979 12.7994 2.17727L12.8062 2.1704C13.0876 2.25245 13.3467 2.34676 13.5837 2.45332C13.7953 2.54848 14.0003 2.65839 14.1986 2.78303C14.2144 2.79298 14.2381 2.80811 14.2695 2.82843L12.0036 5.09437C11.9255 5.17247 11.9255 5.29911 12.0036 5.37721L13.1349 6.50858C13.213 6.58669 13.3397 6.58669 13.4178 6.50858L15.6837 4.24264C15.7703 4.32924 15.8711 4.50051 15.9862 4.75646C16.1012 5.01241 16.2197 5.3289 16.3418 5.70594Z" fill="black" />
</svg>
