<svg width="18" height="18" viewBox="0 0 18 18" fill="none" xmlns="http://www.w3.org/2000/svg">
<path fill-rule="evenodd" clip-rule="evenodd" d="M9.88059 11.1299L4.39709 16.6134C4.20135 16.8091 3.89011 16.8152 3.69238 16.6175L2.27164 15.1968C2.07818 15.0033 2.08381 14.684 2.27577 14.4921L7.75927 9.00857C6.96021 7.33588 7.25341 5.27179 8.63886 3.88633C9.41414 3.11105 10.4043 2.68018 11.4189 2.59076C11.9768 2.54158 12.7198 2.64714 13.0832 2.75248C13.4466 2.85783 13.5886 3.06154 13.6028 3.10851C13.6169 3.15549 13.4888 3.27906 13.4888 3.27906L11.2552 5.51264C11.1724 5.59539 11.1761 5.71641 11.2529 5.79328L13.0959 7.63623C13.1739 7.71422 13.2984 7.71209 13.3765 7.63396L15.6101 5.40038C15.6101 5.40038 15.7365 5.2713 15.7806 5.2864C15.8102 5.2965 16.0446 5.52192 16.1474 5.81668C16.2502 6.11145 16.2987 6.48375 16.3168 6.82337C16.3824 8.05521 15.9435 9.3096 15.0028 10.2503C13.6174 11.6357 11.5533 11.9289 9.88059 11.1299Z" fill="black" />
</svg>
