<svg width="18" height="18" viewBox="0 0 18 18" fill="none" xmlns="http://www.w3.org/2000/svg">
<path fill-rule="evenodd" clip-rule="evenodd" d="M9.88056 11.1299L4.39706 16.6134C4.20132 16.8091 3.89008 16.8152 3.69235 16.6175L2.27161 15.1968C2.07815 15.0033 2.08378 14.684 2.27574 14.4921L7.75923 9.00857C6.96018 7.33588 7.25338 5.27179 8.63883 3.88633C9.41411 3.11105 10.4043 2.68018 11.4189 2.59076C11.9768 2.54158 12.7197 2.64714 13.0832 2.75248C13.4466 2.85783 13.5886 3.06154 13.6027 3.10851C13.6169 3.15549 13.4887 3.27906 13.4887 3.27906L11.2552 5.51264C11.1724 5.59539 11.176 5.71641 11.2529 5.79328L13.0958 7.63623C13.1738 7.71422 13.2984 7.71209 13.3765 7.63396L15.6101 5.40038C15.6101 5.40038 15.7364 5.2713 15.7806 5.2864C15.8102 5.2965 16.0445 5.52192 16.1474 5.81668C16.2502 6.11145 16.2987 6.48375 16.3168 6.82337C16.3824 8.05521 15.9435 9.3096 15.0028 10.2503C13.6173 11.6357 11.5532 11.9289 9.88056 11.1299Z" fill="black" />
</svg>
