<svg width="18" height="18" viewBox="0 0 18 18" fill="none" xmlns="http://www.w3.org/2000/svg">
<path fill-rule="evenodd" clip-rule="evenodd" d="M9.88059 11.1299L4.39709 16.6134C4.20135 16.8092 3.89011 16.8153 3.69238 16.6176L2.27164 15.1968C2.07818 15.0034 2.08381 14.6841 2.27577 14.4921L7.75927 9.00862C6.96021 7.33593 7.25341 5.27183 8.63886 3.88638C9.41414 3.1111 10.4043 2.68023 11.4189 2.5908C11.9768 2.54162 12.7198 2.64718 13.0832 2.75253C13.4466 2.85787 13.5886 3.06158 13.6028 3.10856C13.6169 3.15553 13.4888 3.27911 13.4888 3.27911L11.2552 5.51269C11.1724 5.59543 11.1761 5.71646 11.2529 5.79333L13.0959 7.63628C13.1739 7.71426 13.2984 7.71213 13.3765 7.63401L15.6101 5.40043C15.6101 5.40043 15.7365 5.27135 15.7806 5.28645C15.8102 5.29654 16.0446 5.52196 16.1474 5.81673C16.2502 6.11149 16.2987 6.48379 16.3168 6.82342C16.3824 8.05525 15.9435 9.30964 15.0028 10.2503C13.6174 11.6358 11.5533 11.929 9.88059 11.1299Z" fill="black" />
</svg>
