<svg width="18" height="18" viewBox="0 0 18 18" fill="none" xmlns="http://www.w3.org/2000/svg">
<path fill-rule="evenodd" clip-rule="evenodd" d="M2.5 14.5H8.5C8.77614 14.5 9 14.2761 9 14V12.5C9 12.2239 8.77614 12 8.5 12H2.5C2.22386 12 2 12.2239 2 12.5V14C2 14.2761 2.22386 14.5 2.5 14.5ZM2.5 10.5H11.5C11.7761 10.5 12 10.2761 12 10V8.5C12 8.22386 11.7761 8 11.5 8H2.5C2.22386 8 2 8.22386 2 8.5V10C2 10.2761 2.22386 10.5 2.5 10.5ZM2.5 6.5H15.5C15.7761 6.5 16 6.27614 16 6V4.5C16 4.22386 15.7761 4 15.5 4H2.5C2.22386 4 2 4.22386 2 4.5V6C2 6.27614 2.22386 6.5 2.5 6.5Z" fill="black" />
</svg>
