<svg width="18" height="18" viewBox="0 0 18 18" fill="none" xmlns="http://www.w3.org/2000/svg">
<path fill-rule="evenodd" clip-rule="evenodd" d="M9 16.5C4.85786 16.5 1.5 13.1421 1.5 9C1.5 4.85786 4.85786 1.5 9 1.5C13.1421 1.5 16.5 4.85786 16.5 9C16.5 13.1421 13.1421 16.5 9 16.5ZM6.25 8C5.69772 8 5.25 7.55228 5.25 7C5.25 6.44772 5.69772 6 6.25 6C6.80228 6 7.25 6.44772 7.25 7C7.25 7.55228 6.80228 8 6.25 8ZM11.5 8C10.9477 8 10.5 7.55228 10.5 7C10.5 6.44772 10.9477 6 11.5 6C12.0523 6 12.5 6.44772 12.5 7C12.5 7.55228 12.0523 8 11.5 8ZM9 13.5C6.79086 13.5 5 12 5 10H13C13 12 11.2091 13.5 9 13.5Z" fill="black" />
</svg>
