<svg width="18" height="18" viewBox="0 0 18 18" fill="none" xmlns="http://www.w3.org/2000/svg">
<path fill-rule="evenodd" clip-rule="evenodd" d="M16 9C16 12.866 12.866 16 9 16C5.13401 16 2 12.866 2 9C2 5.13401 5.13401 2 9 2C12.866 2 16 5.13401 16 9ZM6.66669 8C6.1144 8 5.66669 7.55228 5.66669 7C5.66669 6.44772 6.1144 6 6.66669 6C7.21897 6 7.66669 6.44772 7.66669 7C7.66669 7.55228 7.21897 8 6.66669 8ZM11.6667 8C11.1144 8 10.6667 7.55228 10.6667 7C10.6667 6.44772 11.1144 6 11.6667 6C12.219 6 12.6667 6.44772 12.6667 7C12.6667 7.55228 12.219 8 11.6667 8ZM9.16669 13C7.23369 13 5.66669 11.7143 5.66669 10H12.6667C12.6667 11.7143 11.0997 13 9.16669 13Z" fill="black" />
</svg>
