<svg width="18" height="18" viewBox="0 0 18 18" fill="none" xmlns="http://www.w3.org/2000/svg">
<path fill-rule="evenodd" clip-rule="evenodd" d="M7.66398 14.4879C7.66398 14.764 7.88783 14.9879 8.16398 14.9879H9.16196C9.4381 14.9879 9.66196 14.764 9.66196 14.4879V13.4899C9.66196 13.2138 9.4381 12.9899 9.16196 12.9899H8.16398C7.88783 12.9899 7.66398 13.2138 7.66398 13.4899V14.4879ZM9.66657 10.9919C9.66657 10.7202 9.94895 10.5071 10.9986 9.65994C11.9576 8.88606 12.9965 8.26535 12.9965 6.66297C12.9965 5.48416 12.569 4.56109 11.8257 3.96036C11.0692 3.34765 10.1954 3 9.00058 3C7.59 3 6.50576 3.4662 5.75585 4.25074C5.05448 4.98354 4.99714 5.75781 5.0001 6.49599C5.00121 6.77214 5.22847 6.99597 5.50461 6.99597H6.63097C6.83621 6.99597 7.00259 6.82958 7.00259 6.62434C7.00259 6.24872 7.07718 5.68129 7.66859 5.29235C7.95363 5.10454 8.47444 5.00331 9.00191 4.99798C9.50939 4.99265 10.0209 5.0779 10.3326 5.29235C10.9586 5.72525 10.9986 6.19011 10.9986 6.66297C10.9986 7.17978 10.551 7.67928 9.66657 8.32795C8.32659 9.31096 7.66859 9.68392 7.66859 10.3259V11.1579C7.66859 11.4341 7.89244 11.6579 8.16859 11.6579H9.16923C9.44538 11.6579 9.66786 11.4342 9.66684 11.1581C9.66667 11.1123 9.66657 11.0587 9.66657 10.9919Z" fill="black" />
</svg>
