<svg width="18" height="18" viewBox="0 0 18 18" fill="none" xmlns="http://www.w3.org/2000/svg">
<path fill-rule="evenodd" clip-rule="evenodd" d="M3.60355 2.39648C3.40829 2.59175 3.40829 2.90833 3.60355 3.10359L14.9173 14.4173C15.1125 14.6126 15.4291 14.6126 15.6244 14.4173L15.9779 14.0637C16.1732 13.8685 16.1732 13.5519 15.9779 13.3566L14.4545 11.8332C15.2574 11.1499 16.0333 10.3049 16.7821 9.29839C16.9139 9.12127 16.9139 8.87869 16.7821 8.70157C14.4503 5.56722 11.8562 4.00004 8.99998 4.00004C8.28815 4.00004 7.5926 4.09738 6.91334 4.29206L4.66421 2.04293C4.46895 1.84767 4.15237 1.84767 3.95711 2.04293L3.60355 2.39648ZM8.18288 5.5616L8.87415 6.25287C8.91586 6.25099 8.95781 6.25004 8.99998 6.25004C10.5188 6.25004 11.75 7.48125 11.75 9.00004C11.75 9.04221 11.749 9.08416 11.7472 9.12587L13.3301 10.7088C13.8464 10.2721 14.3584 9.7555 14.8663 9.15906C14.9443 9.0674 14.9441 8.93239 14.866 8.84073C12.9697 6.6136 11.0144 5.50004 8.99998 5.50004C8.72653 5.50004 8.45416 5.52056 8.18288 5.5616Z" fill="#606060"/>
<path d="M4.36264 5.53372C4.46045 5.46523 4.5929 5.4785 4.67732 5.56293L5.44612 6.33172C5.55895 6.44456 5.53856 6.63273 5.40744 6.72369C4.64033 7.25587 3.88242 7.96165 3.13371 8.84101C3.05567 8.93267 3.0559 9.06768 3.13395 9.15934C5.03024 11.3865 6.98559 12.5 8.99998 12.5C9.67946 12.5 10.3522 12.3733 11.0183 12.1199C11.1125 12.0841 11.2195 12.1051 11.2908 12.1764L12.0932 12.9788C12.215 13.1007 12.1799 13.3062 12.0215 13.3742C11.0493 13.7914 10.0421 14 8.99998 14C6.14373 14 3.54969 12.4329 1.21785 9.2985C1.08608 9.12138 1.08608 8.87881 1.21784 8.70169C2.21789 7.35746 3.26615 6.30146 4.36264 5.53372Z" fill="#606060"/>
<path d="M6.51278 7.82537C6.58162 7.67986 6.77231 7.65792 6.88613 7.77174L7.6901 8.5757C7.75315 8.63876 7.77588 8.73039 7.76305 8.81863C7.75444 8.87786 7.74998 8.93843 7.74998 9.00004C7.74998 9.69039 8.30963 10.25 8.99998 10.25C9.06159 10.25 9.12216 10.2456 9.18139 10.237C9.26963 10.2241 9.36126 10.2469 9.42432 10.3099L10.2283 11.1139C10.3421 11.2277 10.3202 11.4184 10.1747 11.4872C9.81844 11.6558 9.42022 11.75 8.99998 11.75C7.4812 11.75 6.24998 10.5188 6.24998 9.00004C6.24998 8.5798 6.34425 8.18158 6.51278 7.82537Z" fill="#606060"/>
</svg>
