<svg width="18" height="18" viewBox="0 0 18 18" fill="none" xmlns="http://www.w3.org/2000/svg">
<path fill-rule="evenodd" clip-rule="evenodd" d="M5.5 8.99999V14.5H7V11H11V14.5H12.5V8.99999H13.7145L9.01768 4.16982L4.47164 8.99999H5.5ZM8.64179 2.38058C8.83701 2.17317 9.16579 2.17049 9.36436 2.3747L16.4402 9.65142C16.7484 9.96837 16.5238 10.5 16.0817 10.5H14V15.5C14 15.7761 13.7761 16 13.5 16H9.5V12.5H8.5V16H4.5C4.22386 16 4 15.7761 4 15.5V10.5H2.15721C1.71903 10.5 1.49279 9.97639 1.79311 9.65731L8.64179 2.38058Z" fill="black" />
</svg>
