<svg width="18" height="18" viewBox="0 0 18 18" fill="none" xmlns="http://www.w3.org/2000/svg">
<path fill-rule="evenodd" clip-rule="evenodd" d="M5.50003 8.99999V14.5H7.00003V11H11V14.5H12.5V8.99999H13.7146L9.01771 4.16982L4.47167 8.99999H5.50003ZM8.64182 2.38058C8.83704 2.17317 9.16582 2.17049 9.36439 2.3747L16.4402 9.65142C16.7484 9.96837 16.5239 10.5 16.0818 10.5H14V15.5C14 15.7761 13.7762 16 13.5 16H9.50003V12.5H8.50003V16H4.50003C4.22389 16 4.00003 15.7761 4.00003 15.5V10.5H2.15724C1.71906 10.5 1.49283 9.97639 1.79314 9.65731L8.64182 2.38058Z" fill="black" />
</svg>
