<svg width="18" height="18" viewBox="0 0 18 18" fill="none" xmlns="http://www.w3.org/2000/svg">
<path fill-rule="evenodd" clip-rule="evenodd" d="M5.50003 9.00011V14.5001H7.00003V11.0001H11V14.5001H12.5V9.00011H13.7146L9.01771 4.16994L4.47167 9.00011H5.50003ZM8.64182 2.38071C8.83704 2.17329 9.16582 2.17061 9.36439 2.37482L16.4402 9.65154C16.7484 9.96849 16.5239 10.5001 16.0818 10.5001H14V15.5001C14 15.7763 13.7762 16.0001 13.5 16.0001H9.50003V12.5001H8.50003V16.0001H4.50003C4.22389 16.0001 4.00003 15.7763 4.00003 15.5001V10.5001H2.15724C1.71906 10.5001 1.49283 9.97652 1.79314 9.65743L8.64182 2.38071Z" fill="black" />
</svg>
