<svg width="18" height="18" viewBox="0 0 18 18" fill="none" xmlns="http://www.w3.org/2000/svg">
<path fill-rule="evenodd" clip-rule="evenodd" d="M8 14.7544V13.5H3C2.44772 13.5 2 13.0523 2 12.5V3.5C2 2.94772 2.44772 2.5 3 2.5H15C15.5523 2.5 16 2.94772 16 3.5V12.5C16 13.0523 15.5523 13.5 15 13.5H10V14.7544H11.75C11.8881 14.7544 12 14.8664 12 15.0044V15.7544C12 15.8925 11.8881 16.0044 11.75 16.0044H6.25C6.11193 16.0044 6 15.8925 6 15.7544V15.0044C6 14.8664 6.11193 14.7544 6.25 14.7544H8ZM3.5 4V12H14.5V4H3.5ZM5 5.5H7V7H5V5.5ZM13 5.5H8V7H13V5.5ZM5 8.5H7V10H5V8.5ZM13 8.5H8V10H13V8.5Z" fill="black" />
</svg>
