<svg width="18" height="18" viewBox="0 0 18 18" fill="none" xmlns="http://www.w3.org/2000/svg">
<path fill-rule="evenodd" clip-rule="evenodd" d="M2 2.5C2 2.22386 2.22386 2 2.5 2H4.5C4.77614 2 5 2.22386 5 2.5V3H13V2.5C13 2.22386 13.2239 2 13.5 2H15.5C15.7761 2 16 2.22386 16 2.5V4.5C16 4.77614 15.7761 5 15.5 5H15V13H15.5C15.7761 13 16 13.2239 16 13.5V15.5C16 15.7761 15.7761 16 15.5 16H13.5C13.2239 16 13 15.7761 13 15.5V15H5V15.5C5 15.7761 4.77614 16 4.5 16H2.5C2.22386 16 2 15.7761 2 15.5V13.5C2 13.2239 2.22386 13 2.5 13H3V5H2.5C2.22386 5 2 4.77614 2 4.5V2.5ZM5 13.5C5 13.2239 4.77614 13 4.5 13V5C4.77614 5 5 4.77614 5 4.5H13C13 4.77614 13.2239 5 13.5 5V13C13.2239 13 13 13.2239 13 13.5H5Z" fill="black" />
</svg>
