<svg width="18" height="18" viewBox="0 0 18 18" fill="none" xmlns="http://www.w3.org/2000/svg">
<path fill-rule="evenodd" clip-rule="evenodd" d="M11.3472 10.4203C12.5854 10.1824 13.7172 9.42836 14.3971 8.25075C15.6397 6.09843 14.9023 3.34628 12.75 2.10364C10.5976 0.860996 7.84549 1.59843 6.60285 3.75075C5.92294 4.92839 5.83581 6.28561 6.24889 7.47689L3.29392 13.4235C3.17643 13.6599 3.26303 13.947 3.49169 14.079L3.95084 14.3441L3.20092 15.643C3.06285 15.8821 3.14479 16.1879 3.38393 16.326L5.11598 17.326C5.35513 17.4641 5.66093 17.3821 5.799 17.143L6.54892 15.8441L7.00823 16.1092C7.23688 16.2413 7.52878 16.1727 7.6748 15.9528L11.3472 10.4203ZM8.99997 8.59883C9.96159 9.15402 11.1028 9.11633 12.0004 8.59917L7.49947 6.00056C7.50037 7.03645 8.03834 8.04363 8.99997 8.59883ZM7.90185 4.50083L13.098 7.50083C13.9264 6.06595 13.4348 4.2311 12 3.40268C10.5651 2.57425 8.73027 3.06595 7.90185 4.50083ZM7.15866 9.01681C7.46611 9.35727 7.83127 9.65613 8.24997 9.89787C8.66869 10.1396 9.11012 10.3064 9.55871 10.4025L6.94464 14.3405L5.05528 13.2497L7.15866 9.01681Z" fill="black" />
</svg>
