<svg width="18" height="18" viewBox="0 0 18 18" fill="none" xmlns="http://www.w3.org/2000/svg">
<path d="M10.5983 2.80557C11.0864 2.31741 11.8779 2.31742 12.366 2.80557L15.1945 5.63401C15.6826 6.12217 15.6826 6.91363 15.1945 7.40179L12.2374 10.3588C12.0421 10.5541 11.7256 10.5541 11.5303 10.3588L11.1768 10.0052C10.9815 9.80999 10.9815 9.4934 11.1768 9.29814L13.957 6.5179L11.4821 4.04301L8.70186 6.82326C8.50659 7.01852 8.19001 7.01852 7.99475 6.82325L7.6412 6.4697C7.44594 6.27443 7.44594 5.95785 7.6412 5.76259L10.5983 2.80557Z" fill="black" />
<path d="M7.06581 10.6015C6.87055 10.4062 6.87055 10.0896 7.06581 9.89438L9.89424 7.06596C10.0895 6.87069 10.4061 6.87069 10.6013 7.06596L10.9549 7.41951C11.1502 7.61477 11.1502 7.93135 10.9549 8.12662L8.12647 10.955C7.93121 11.1503 7.61462 11.1503 7.41936 10.955L7.06581 10.6015Z" fill="black" />
<path d="M5.63389 15.1947C6.12205 15.6828 6.9135 15.6828 7.40166 15.1947L10.3587 12.2377C10.554 12.0424 10.554 11.7258 10.3587 11.5305L10.0052 11.177C9.8099 10.9817 9.49332 10.9817 9.29806 11.177L6.51778 13.9572L4.04289 11.4823L6.82316 8.7021C7.01842 8.50684 7.01842 8.19026 6.82316 7.995L6.46961 7.64144C6.27435 7.44618 5.95777 7.44618 5.76251 7.64144L2.80545 10.5985C2.31729 11.0866 2.31729 11.8781 2.80545 12.3662L5.63389 15.1947Z" fill="black" />
</svg>
