<svg width="18" height="18" viewBox="0 0 18 18" fill="none" xmlns="http://www.w3.org/2000/svg">
<path d="M10.5983 2.80557C11.0865 2.31741 11.8779 2.31742 12.3661 2.80557L15.1945 5.63401C15.6827 6.12217 15.6827 6.91363 15.1945 7.40179L12.2375 10.3588C12.0422 10.5541 11.7256 10.5541 11.5304 10.3588L11.1768 10.0052C10.9816 9.80999 10.9816 9.4934 11.1768 9.29814L13.9571 6.5179L11.4822 4.04301L8.70192 6.82326C8.50665 7.01852 8.19007 7.01852 7.99481 6.82325L7.64126 6.4697C7.446 6.27443 7.446 5.95785 7.64126 5.76259L10.5983 2.80557Z" fill="black" />
<path d="M7.06587 10.6015C6.87061 10.4062 6.87061 10.0896 7.06587 9.89438L9.8943 7.06596C10.0896 6.87069 10.4061 6.87069 10.6014 7.06596L10.955 7.41951C11.1502 7.61477 11.1502 7.93135 10.955 8.12662L8.12653 10.955C7.93127 11.1503 7.61469 11.1503 7.41942 10.955L7.06587 10.6015Z" fill="black" />
<path d="M5.63396 15.1947C6.12211 15.6828 6.91356 15.6828 7.40172 15.1947L10.3588 12.2377C10.554 12.0424 10.554 11.7258 10.3588 11.5305L10.0052 11.177C9.80997 10.9817 9.49338 10.9817 9.29812 11.177L6.51784 13.9572L4.04295 11.4823L6.82322 8.7021C7.01848 8.50684 7.01849 8.19026 6.82322 7.995L6.46967 7.64144C6.27441 7.44618 5.95783 7.44618 5.76257 7.64144L2.80551 10.5985C2.31735 11.0866 2.31735 11.8781 2.80551 12.3662L5.63396 15.1947Z" fill="black" />
</svg>
