<svg width="18" height="18" viewBox="0 0 18 18" fill="none" xmlns="http://www.w3.org/2000/svg">
<path fill-rule="evenodd" clip-rule="evenodd" d="M7.06588 10.6015C6.87062 10.4062 6.87062 10.0896 7.06588 9.89438L9.89431 7.06596C10.0896 6.87069 10.4062 6.87069 10.6014 7.06596L10.955 7.41951C11.1502 7.61477 11.1502 7.93135 10.955 8.12662L8.12654 10.955C7.93128 11.1503 7.6147 11.1503 7.41944 10.955L7.06588 10.6015Z" fill="black" />
<path fill-rule="evenodd" clip-rule="evenodd" d="M10.5983 2.80532C11.0864 2.31717 11.8779 2.31717 12.366 2.80533L15.1945 5.63377C15.6826 6.12193 15.6826 6.91339 15.1945 7.40154L12.2374 10.3586C12.0422 10.5538 11.7256 10.5538 11.5303 10.3586L11.1768 10.005C10.9815 9.80974 10.9815 9.49316 11.1768 9.2979L13.957 6.51765L11.4821 4.04276L9.91523 5.60966L8.70187 6.82301C8.50661 7.01827 8.19002 7.01827 7.99476 6.82301L7.64121 6.46945C7.44595 6.27419 7.44595 5.95761 7.64121 5.76235L10.5983 2.80532Z" fill="black" />
<path fill-rule="evenodd" clip-rule="evenodd" d="M7.40173 15.1947C6.91357 15.6828 6.12212 15.6828 5.63397 15.1947L2.80552 12.3662C2.31736 11.8781 2.31737 11.0866 2.80553 10.5985L5.76258 7.64144C5.95784 7.44618 6.27442 7.44618 6.46968 7.64144L6.82324 7.995C7.0185 8.19026 7.0185 8.50684 6.82323 8.7021L4.04296 11.4823L6.51785 13.9572L8.08477 12.3903L9.29813 11.177C9.49339 10.9817 9.80998 10.9817 10.0052 11.177L10.3588 11.5305C10.5541 11.7258 10.554 12.0424 10.3588 12.2377L7.40173 15.1947Z" fill="black" />
</svg>
