<svg width="18" height="18" viewBox="0 0 18 18" fill="none" xmlns="http://www.w3.org/2000/svg">
<path fill-rule="evenodd" clip-rule="evenodd" d="M6.87501 3.125C6.87501 1.95139 7.82641 1 9.00001 1C10.1736 1 11.125 1.95139 11.125 3.125C11.125 4.2986 10.1736 5.25 9.00001 5.25C7.82641 5.25 6.87501 4.2986 6.87501 3.125ZM9.00001 3.75C8.65483 3.75 8.37501 3.47018 8.37501 3.125C8.37501 2.77982 8.65483 2.5 9.00001 2.5C9.34519 2.5 9.62501 2.77982 9.62501 3.125C9.62501 3.47018 9.34519 3.75 9.00001 3.75Z" fill="black" />
<path fill-rule="evenodd" clip-rule="evenodd" d="M12.3369 7.64142C12.423 7.03899 11.9555 6.5 11.347 6.5H6.65302C6.04447 6.5 5.57701 7.03899 5.66307 7.64142L6.90802 16.3561C6.9608 16.7256 7.27724 17 7.65048 17H10.3495C10.7228 17 11.0392 16.7256 11.092 16.3561L12.3369 7.64142ZM9.69907 15.5L10.7705 8H7.22952L8.30095 15.5H9.69907Z" fill="black" />
</svg>
