<svg width="18" height="18" viewBox="0 0 18 18" fill="none" xmlns="http://www.w3.org/2000/svg">
<path d="M7.00001 3C7.00001 1.89543 7.89544 1 9.00001 1C10.1046 1 11 1.89543 11 3C11 4.10457 10.1046 5 9.00001 5C7.89544 5 7.00001 4.10457 7.00001 3Z" fill="black" />
<path d="M5.66307 7.64142C5.57701 7.03899 6.04447 6.5 6.65302 6.5H11.347C11.9555 6.5 12.423 7.03899 12.3369 7.64142L11.092 16.3561C11.0392 16.7256 10.7228 17 10.3495 17H7.65048C7.27724 17 6.9608 16.7256 6.90802 16.3561L5.66307 7.64142Z" fill="black" />
</svg>
