<svg width="18" height="18" viewBox="0 0 18 18" fill="none" xmlns="http://www.w3.org/2000/svg">
<path fill-rule="evenodd" clip-rule="evenodd" d="M10.75 5.45L7.25 4.05V12.55L10.75 13.95V5.45ZM12.25 5.42857V13.9286L15 12.75V4.25L12.25 5.42857ZM5.75 4.07143L3 5.25V13.75L5.75 12.5714V4.07143ZM1.8143 3.87427L6.3143 2.07427C6.43351 2.02659 6.56649 2.02659 6.6857 2.07427L11.3144 3.92575C11.4335 3.97341 11.5665 3.97343 11.6856 3.92581L15.8188 2.27398C16.0753 2.1715 16.3662 2.29629 16.4687 2.55272C16.4923 2.61174 16.5044 2.67471 16.5044 2.73827V13.6614C16.5044 13.8659 16.3799 14.0498 16.19 14.1257L11.6856 15.9258C11.5665 15.9734 11.4335 15.9734 11.3144 15.9258L6.6857 14.0743C6.56649 14.0266 6.43351 14.0266 6.3143 14.0743L2.1857 15.7257C1.9293 15.8283 1.63832 15.7036 1.53576 15.4472C1.51214 15.3881 1.5 15.3251 1.5 15.2615V4.33851C1.5 4.13406 1.62448 3.95021 1.8143 3.87427Z" fill="black" />
</svg>
