<svg width="18" height="18" viewBox="0 0 18 18" fill="none" xmlns="http://www.w3.org/2000/svg">
<path d="M6 10C6 9.72386 6.22386 9.5 6.5 9.5H6.7C6.97614 9.5 7.2 9.72386 7.2 10V12C7.2 12.2761 6.97614 12.5 6.7 12.5H6.5C6.22386 12.5 6 12.2761 6 12V10Z" fill="black" />
<path d="M8.90002 9.5C8.62388 9.5 8.40002 9.72386 8.40002 10V12C8.40002 12.2761 8.62388 12.5 8.90002 12.5H9.10002C9.37617 12.5 9.60002 12.2761 9.60002 12V10C9.60002 9.72386 9.37617 9.5 9.10002 9.5H8.90002Z" fill="black" />
<path d="M10.8 10C10.8 9.72386 11.0239 9.5 11.3 9.5H11.5C11.7762 9.5 12 9.72386 12 10V12C12 12.2761 11.7762 12.5 11.5 12.5H11.3C11.0239 12.5 10.8 12.2761 10.8 12V10Z" fill="black" />
<path fill-rule="evenodd" clip-rule="evenodd" d="M2.5 7H3.61111L4.41299 3.39153C4.46383 3.16277 4.66674 3 4.90109 3H13.0989C13.3333 3 13.5362 3.16277 13.587 3.39153L14.3889 7H15.5C15.7761 7 16 7.22386 16 7.5V8C16 8.27614 15.7761 8.5 15.5 8.5H15L14.5355 14.5383C14.5155 14.7988 14.2983 15 14.037 15H3.96302C3.70175 15 3.48453 14.7988 3.46449 14.5383L3 8.5H2.5C2.22386 8.5 2 8.27614 2 8V7.5C2 7.22386 2.22386 7 2.5 7ZM5.46261 4.2L4.84038 7H13.1596L12.5374 4.2H5.46261ZM13.4956 8.5H4.50443L4.88905 13.5H13.111L13.4956 8.5Z" fill="black" />
</svg>
