<svg width="18" height="18" viewBox="0 0 18 18" fill="none" xmlns="http://www.w3.org/2000/svg">
<path d="M3.45877 5.60002V2.18762H2.76572L1.625 3.09584L2.07772 3.66097L2.52476 3.30174C2.54212 3.28785 2.56374 3.26902 2.58932 3.24557L2.58646 3.33243L2.58643 3.33356L2.57984 3.63898L2.57982 3.64114V5.60002H3.45877Z" fill="#6B6B6B"/>
<path d="M6.5 3.00006C6.22386 3.00006 6 3.22392 6 3.50006V4.75006C6 5.0262 6.22386 5.25006 6.5 5.25006H15.5C15.7761 5.25006 16 5.0262 16 4.75006V3.50006C16 3.22392 15.7761 3.00006 15.5 3.00006H6.5Z" fill="#6B6B6B"/>
<path d="M6.5 8.00006C6.22386 8.00006 6 8.22392 6 8.50006V9.75006C6 10.0262 6.22386 10.2501 6.5 10.2501H15.5C15.7761 10.2501 16 10.0262 16 9.75006V8.50006C16 8.22392 15.7761 8.00006 15.5 8.00006H6.5Z" fill="#6B6B6B"/>
<path d="M6 13.5001C6 13.2239 6.22386 13.0001 6.5 13.0001H15.5C15.7761 13.0001 16 13.2239 16 13.5001V14.7501C16 15.0262 15.7761 15.2501 15.5 15.2501H6.5C6.22386 15.2501 6 15.0262 6 14.7501V13.5001Z" fill="#6B6B6B"/>
<path d="M4.02579 10.6H1.58018V9.98651L2.41502 9.14258C2.65392 8.89781 2.80617 8.73235 2.87557 8.64358C2.94506 8.5532 2.9922 8.47344 3.01995 8.40405C3.04748 8.33524 3.06114 8.26435 3.06114 8.1907C3.06114 8.08 3.03081 8.01601 2.98752 7.97802L2.98675 7.97734C2.93914 7.93469 2.87062 7.90837 2.77003 7.90837C2.66142 7.90837 2.5555 7.93316 2.4513 7.98395C2.34285 8.03682 2.22717 8.11331 2.10429 8.215L2.028 8.27814L1.53076 7.68914L1.60655 7.62458C1.76675 7.48812 1.90419 7.38755 2.01752 7.3269C2.12948 7.26698 2.25097 7.22161 2.38157 7.19047C2.51381 7.15747 2.65965 7.14148 2.81837 7.14148C3.0313 7.14148 3.22368 7.18038 3.3931 7.26106C3.56219 7.34157 3.69643 7.45599 3.79232 7.60479C3.88856 7.75412 3.9357 7.92413 3.9357 8.1116C3.9357 8.27172 3.90711 8.42368 3.8493 8.56658C3.79354 8.7066 3.70729 8.84748 3.59295 8.9893C3.47936 9.132 3.28273 9.3303 3.00725 9.58235L2.74556 9.82874H4.02579V10.6Z" fill="#6B6B6B"/>
<path d="M3.76355 14.2357C3.92032 14.3823 3.99502 14.579 3.99502 14.814C3.99502 15.1508 3.87107 15.4224 3.61991 15.6161C3.3718 15.8058 3.02662 15.894 2.59864 15.894C2.23895 15.894 1.91605 15.8343 1.63194 15.7123L1.57139 15.6863V14.8798L1.71653 14.9533C1.83418 15.0128 1.9645 15.0617 2.10787 15.0996C2.24939 15.1371 2.38874 15.1556 2.52613 15.1556C2.74262 15.1556 2.88295 15.1182 2.96469 15.0599C3.03797 15.0077 3.08311 14.9207 3.08311 14.7744C3.08311 14.7126 3.07057 14.6662 3.05029 14.6309C3.03029 14.5962 2.99944 14.5664 2.95297 14.5427C2.85196 14.4909 2.67568 14.4592 2.40967 14.4592H2.06578V13.7384H2.41407C2.65862 13.7384 2.81861 13.706 2.90967 13.6547C2.98766 13.6102 3.03257 13.5357 3.03257 13.4055C3.03257 13.3061 3.00255 13.2473 2.95594 13.2101C2.90502 13.1695 2.81724 13.1408 2.67554 13.1408C2.5814 13.1408 2.48407 13.1565 2.38321 13.1887C2.2857 13.2204 2.17293 13.2765 2.0444 13.3598L1.96182 13.4133L1.53882 12.7833L1.61735 12.7267C1.92942 12.502 2.29986 12.3915 2.72388 12.3915C3.06861 12.3915 3.35342 12.4612 3.56784 12.6117C3.78854 12.7656 3.90054 12.984 3.90054 13.2561C3.90054 13.4788 3.83241 13.6732 3.69381 13.8335C3.62087 13.9179 3.53321 13.9872 3.43196 14.0421C3.56276 14.0874 3.67413 14.1513 3.76355 14.2357Z" fill="#6B6B6B"/>
</svg>
