<svg width="18" height="18" viewBox="0 0 18 18" fill="none" xmlns="http://www.w3.org/2000/svg">
<path fill-rule="evenodd" clip-rule="evenodd" d="M1.5 3.41013L12.3329 1.5L13.0155 5.37149H16.3715V16.3715H5.37152V13.8972L3.41013 14.243L1.5 3.41013ZM11.1161 3.23768L11.4924 5.37149H5.37152V12.374L4.62687 12.5053L3.23768 4.62687L11.1161 3.23768ZM6.87152 6.87149V14.8715H14.8715V6.87149H6.87152ZM11.995 9.375C11.995 9.99632 11.4913 10.5 10.87 10.5C10.2487 10.5 9.745 9.99632 9.745 9.375C9.745 8.75368 10.2487 8.25 10.87 8.25C11.4913 8.25 11.995 8.75368 11.995 9.375ZM9.745 13.3125H8.62C8.62 12.0699 9.62736 11.0625 10.87 11.0625C12.1126 11.0625 13.12 12.0699 13.12 13.3125H11.995H9.745Z" fill="black" />
</svg>
