<svg width="18" height="18" viewBox="0 0 18 18" fill="none" xmlns="http://www.w3.org/2000/svg">
<path fill-rule="evenodd" clip-rule="evenodd" d="M11.5067 9.34747C11.0647 10.171 9.90525 10.4086 8.91705 9.87834C7.92884 9.34796 7.48606 8.25037 7.92798 7.42684C8.37003 6.60331 9.5294 6.36559 10.5176 6.89609C11.5058 7.42647 11.9487 8.52394 11.5067 9.34747ZM11.6603 6.31507C9.34293 4.20909 5.98116 4.1336 4.15169 6.14672C2.32209 8.15971 2.71764 11.499 5.03504 13.6051C7.35244 15.7112 10.7142 15.7865 12.5437 13.7735C14.3733 11.7604 13.9777 8.42117 11.6603 6.31507Z" fill="black" />
<path fill-rule="evenodd" clip-rule="evenodd" d="M13.7698 3.04655C14.6741 2.81005 15.6371 3.49801 15.9208 4.58312C16.2045 5.6681 15.7016 6.73951 14.7973 6.97589C13.8931 7.21239 12.9301 6.52454 12.6463 5.43943C12.3626 4.35433 12.8655 3.28317 13.7698 3.04655Z" fill="black" />
</svg>
