<svg width="18" height="18" viewBox="0 0 18 18" fill="none" xmlns="http://www.w3.org/2000/svg">
<path d="M10.7503 2.21991V6.7897L6.44199 2.48139C7.80563 1.94586 9.33203 1.85484 10.7503 2.21991Z" fill="black" />
<path d="M11.8004 2.5819V8.67455L15.0313 5.44362C14.2855 4.18138 13.1546 3.17361 11.8004 2.5819Z" fill="black" />
<path d="M15.5185 6.44157L11.2101 10.7499H15.7802C16.1452 9.33158 16.0541 7.80518 15.5185 6.44157Z" fill="black" />
<path d="M15.4183 11.8H9.32529L12.5566 15.0312C13.8188 14.2853 14.8266 13.1543 15.4183 11.8Z" fill="black" />
<path d="M11.5586 15.5184L7.24997 11.2097V15.7802C8.66837 16.1452 10.1949 16.0541 11.5586 15.5184Z" fill="black" />
<path d="M6.19986 15.4182V9.32487L2.96854 12.5562C3.71448 13.8186 4.84546 14.8265 6.19986 15.4182Z" fill="black" />
<path d="M2.48146 11.5582L6.79012 7.24954H2.21995C1.85482 8.66792 1.94584 10.1945 2.48146 11.5582Z" fill="black" />
<path d="M2.58197 6.19944C3.17375 4.84516 4.18162 3.7143 5.44398 2.96844L8.67498 6.19944H2.58197Z" fill="black" />
</svg>
