<svg width="18" height="18" viewBox="0 0 18 18" fill="none" xmlns="http://www.w3.org/2000/svg">
<path d="M10.5001 3.18896V7.10555L6.80763 3.41306C7.97635 2.95408 9.28457 2.87608 10.5001 3.18896Z" fill="black" />
<path d="M11.4001 3.49921V8.72098L14.1692 5.95187C13.53 4.87006 12.5608 4.00635 11.4001 3.49921Z" fill="black" />
<path d="M14.5867 6.80718L10.8942 10.4997H14.811C15.1238 9.28409 15.0458 7.97587 14.5867 6.80718Z" fill="black" />
<path d="M14.5009 11.3997H9.27879L12.0482 14.169C13.13 13.5297 13.9938 12.5604 14.5009 11.3997Z" fill="black" />
<path d="M11.1929 14.5865L7.50011 10.8938V14.8109C8.71578 15.1238 10.0241 15.0457 11.1929 14.5865Z" fill="black" />
<path d="M6.60011 14.5007V9.27834L3.83068 12.0478C4.46999 13.1297 5.43931 13.9936 6.60011 14.5007Z" fill="black" />
<path d="M3.41322 11.1924L7.106 7.49966H3.18909C2.87615 8.7153 2.95417 10.0236 3.41322 11.1924Z" fill="black" />
<path d="M3.49936 6.59966C4.00655 5.43896 4.87036 4.46974 5.95228 3.8305L8.72143 6.59966H3.49936Z" fill="black" />
</svg>
