<svg width="18" height="18" viewBox="0 0 18 18" fill="none" xmlns="http://www.w3.org/2000/svg">
<path fill-rule="evenodd" clip-rule="evenodd" d="M4.86937 11.4849C4.96226 11.3828 5.12033 11.3753 5.22247 11.4681L5.77748 11.9727C5.87965 12.0656 5.88718 12.2237 5.7943 12.3258L3.05414 15.34L1.03308 13.6077C0.928244 13.5178 0.916104 13.36 1.00596 13.2552L1.49403 12.6857C1.58389 12.5809 1.74174 12.5688 1.84657 12.6586L2.94501 13.6004L4.86937 11.4849ZM16 13C16.2761 13 16.5 13.2239 16.5 13.5V14C16.5 14.2762 16.2761 14.5 16 14.5H7.50001C7.22386 14.5 7.00001 14.2762 7.00001 14V13.5C7.00001 13.2239 7.22386 13 7.50001 13H16ZM4.86937 6.78489C4.96226 6.68278 5.12033 6.67527 5.22247 6.76813L5.77748 7.27268C5.87965 7.36556 5.88718 7.52367 5.7943 7.62584L3.05414 10.64L1.03308 8.90766C0.928244 8.81781 0.916104 8.65998 1.00596 8.55515L1.49403 7.98574C1.58389 7.88089 1.74174 7.86876 1.84657 7.95864L2.94501 8.90043L4.86937 6.78489ZM16 8.25001C16.2761 8.25001 16.5 8.47387 16.5 8.75001V9.25001C16.5 9.52615 16.2761 9.75001 16 9.75001H7.50001C7.22386 9.75001 7.00001 9.52615 7.00001 9.25001V8.75001C7.00001 8.47387 7.22386 8.25001 7.50001 8.25001H16ZM4.86937 2.01447C4.96226 1.91235 5.12033 1.90485 5.22247 1.99771L5.77748 2.50226C5.87965 2.59514 5.88718 2.75325 5.7943 2.85542L3.05414 5.86959L1.03308 4.13724C0.928244 4.04739 0.916104 3.88956 1.00596 3.78473L1.49403 3.21532C1.58389 3.11047 1.74174 3.09834 1.84657 3.18822L2.94501 4.13001L4.86937 2.01447ZM16 3.50001C16.2761 3.50001 16.5 3.72387 16.5 4.00001V4.50001C16.5 4.77615 16.2761 5.00001 16 5.00001H7.50001C7.22386 5.00001 7.00001 4.77615 7.00001 4.50001V4.00001C7.00001 3.72387 7.22386 3.50001 7.50001 3.50001H16Z" fill="black" />
</svg>
