<svg width="18" height="18" viewBox="0 0 18 18" fill="none" xmlns="http://www.w3.org/2000/svg">
<path fill-rule="evenodd" clip-rule="evenodd" d="M5.36511 16C5.0648 16 4.83224 15.7371 4.86884 15.4391L5.29008 12.0083H3.27496C2.99882 12.0083 2.77496 11.7844 2.77496 11.5083V11.0083C2.77496 10.7322 2.99882 10.5083 3.27496 10.5083H5.47426L5.96641 6.5H3.72496C3.44882 6.5 3.22496 6.27614 3.22496 6V5.5C3.22496 5.22386 3.44882 5 3.72496 5H6.15059L6.46503 2.43907C6.49582 2.18837 6.70873 2 6.96131 2H7.46506C7.76537 2 7.99793 2.26286 7.96134 2.56093L7.66186 5H11.1506L11.465 2.43907C11.4958 2.18837 11.7087 2 11.9613 2H12.4651C12.7654 2 12.9979 2.26286 12.9613 2.56093L12.6619 5H14.725C15.0011 5 15.225 5.22386 15.225 5.5V6C15.225 6.27614 15.0011 6.5 14.725 6.5H12.4777L11.9855 10.5083H14.275C14.5511 10.5083 14.775 10.7322 14.775 11.0083V11.5083C14.775 11.7844 14.5511 12.0083 14.275 12.0083H11.8013L11.3651 15.5609C11.3344 15.8116 11.1214 16 10.8689 16H10.3651C10.0648 16 9.83224 15.7371 9.86884 15.4391L10.2901 12.0083H6.80134L6.36514 15.5609C6.33435 15.8116 6.12144 16 5.86886 16H5.36511ZM10.4743 10.5083L10.9664 6.5H7.47768L6.98552 10.5083H10.4743Z" fill="black" />
</svg>
