<svg width="18" height="18" viewBox="0 0 18 18" fill="none" xmlns="http://www.w3.org/2000/svg">
<path fill-rule="evenodd" clip-rule="evenodd" d="M5.74644 15.5C5.44668 15.5 5.21428 15.2381 5.25 14.9404L5.59985 12H3.75C3.47386 12 3.25 11.7761 3.25 11.5V11C3.25 10.7239 3.47386 10.5 3.75 10.5H5.80138L6.22438 7L4.75 7C4.47386 7 4.25 6.77614 4.25 6.5V6C4.25 5.72386 4.47386 5.5 4.75 5.5L6.40438 5.5L6.65153 3.44043C6.68168 3.18913 6.89486 3 7.14797 3H7.64079C7.94055 3 8.17295 3.26195 8.13723 3.55957L7.90438 5.5H11.0171L11.2643 3.44043C11.2945 3.18913 11.5076 3 11.7607 3H12.2536C12.5533 3 12.7857 3.26195 12.75 3.55957L12.5171 5.5L14.25 5.5C14.5261 5.5 14.75 5.72386 14.75 6V6.5C14.75 6.77614 14.5261 7 14.25 7L12.3371 7L11.9141 10.5H13.75C14.0261 10.5 14.25 10.7239 14.25 11V11.5C14.25 11.7761 14.0261 12 13.75 12H11.711L11.3469 15.0596C11.3167 15.3109 11.1035 15.5 10.8504 15.5H10.3576C10.0579 15.5 9.82 15.2381 9.86117 14.9404L10.211 12H7.09985L6.7357 15.0596C6.70555 15.3109 6.49236 15.5 6.23926 15.5H5.74644ZM10.4141 10.5L10.8371 7H7.72438L7.30138 10.5H10.4141Z" fill="black" />
</svg>
