<svg width="18" height="18" viewBox="0 0 18 18" fill="none" xmlns="http://www.w3.org/2000/svg">
<path d="M12.9315 5.39085C12.3051 4.10276 10.7204 3.00025 8.92634 3C7.98492 2.99975 6.54672 3.32294 5.47199 4.62252C4.75428 5.49034 4.51264 6.50599 4.66389 7.51886C4.76779 8.21473 5.15536 9.13279 5.70996 9.71353C5.91903 8.24137 6.69443 7.08356 7.71109 6.23254C9.54672 4.83019 11.5064 4.9096 12.9315 5.39085Z" fill="black" />
<path d="M14.3621 7.59969C13.239 6.14217 11.2976 5.7344 9.54502 6.38431C12.9913 7.42281 14.2033 11.9179 11.784 14.5129C14.6596 13.7168 16.3215 10.1425 14.3621 7.59969Z" fill="black" />
<path d="M7.77684 12.1285C9.21027 12.4487 10.7777 12.1928 11.9695 11.316C11.9462 11.6897 11.8339 12.1395 11.7311 12.4044C10.8859 14.5853 8.439 15.5306 5.87468 14.6884C3.64492 13.9561 2.27856 11.3415 2.90284 9.15908C3.07025 8.57418 3.24131 8.17297 3.56248 7.66811C3.75513 9.075 4.63103 10.4434 5.90801 11.3142C6.0051 11.3796 6.0715 11.4888 6.07693 11.6152C6.0787 11.6572 6.07138 11.6966 6.06203 11.7375L5.84767 12.7105C5.84517 12.7221 5.84222 12.7338 5.83924 12.7456C5.8305 12.7804 5.82154 12.816 5.82305 12.8514C5.82759 12.9564 5.91597 13.0384 6.02062 13.0338C6.06178 13.0321 6.0946 13.0151 6.12856 12.9936L7.34028 12.2168C7.43143 12.1583 7.52902 12.1207 7.63784 12.116C7.68581 12.1139 7.73202 12.1193 7.77684 12.1285Z" fill="black" />
</svg>
