<svg width="18" height="18" viewBox="0 0 18 18" fill="none" xmlns="http://www.w3.org/2000/svg">
<path d="M12.9316 5.39085C12.3051 4.10276 10.7205 3.00025 8.9264 3C7.98498 2.99975 6.54679 3.32294 5.47205 4.62252C4.75434 5.49034 4.5127 6.50599 4.66395 7.51886C4.76785 8.21473 5.15542 9.13279 5.71002 9.71353C5.91909 8.24137 6.69449 7.08356 7.71116 6.23254C9.54678 4.83019 11.5065 4.9096 12.9316 5.39085Z" fill="black" />
<path d="M14.3621 7.59969C13.2391 6.14217 11.2976 5.7344 9.54508 6.38431C12.9914 7.42281 14.2034 11.9179 11.7841 14.5129C14.6597 13.7168 16.3216 10.1425 14.3621 7.59969Z" fill="black" />
<path d="M7.7769 12.1285C9.21033 12.4487 10.7777 12.1928 11.9695 11.316C11.9463 11.6897 11.834 12.1395 11.7312 12.4044C10.886 14.5853 8.43906 15.5306 5.87474 14.6884C3.64498 13.9561 2.27862 11.3415 2.90291 9.15908C3.07031 8.57418 3.24137 8.17297 3.56254 7.66811C3.75519 9.075 4.63109 10.4434 5.90807 11.3142C6.00516 11.3796 6.07156 11.4888 6.07699 11.6152C6.07876 11.6572 6.07144 11.6966 6.06209 11.7375L5.84773 12.7105C5.84523 12.7221 5.84228 12.7338 5.8393 12.7456C5.83056 12.7804 5.8216 12.816 5.82311 12.8514C5.82765 12.9564 5.91603 13.0384 6.02069 13.0338C6.06184 13.0321 6.09467 13.0151 6.12863 12.9936L7.34034 12.2168C7.43149 12.1583 7.52908 12.1207 7.6379 12.116C7.68587 12.1139 7.73208 12.1193 7.7769 12.1285Z" fill="black" />
</svg>
