<svg width="18" height="18" viewBox="0 0 18 18" fill="none" xmlns="http://www.w3.org/2000/svg">
<path d="M12.9315 5.39085C12.3051 4.10276 10.7205 3.00025 8.92637 3C7.98495 2.99975 6.54676 3.32294 5.47202 4.62252C4.75431 5.49034 4.51267 6.50599 4.66392 7.51886C4.76782 8.21473 5.15539 9.13279 5.70999 9.71353C5.91906 8.24137 6.69446 7.08356 7.71113 6.23254C9.54675 4.83019 11.5065 4.9096 12.9315 5.39085Z" fill="black" />
<path d="M14.3621 7.59969C13.239 6.14217 11.2976 5.7344 9.54505 6.38431C12.9913 7.42281 14.2033 11.9179 11.784 14.5129C14.6596 13.7168 16.3215 10.1425 14.3621 7.59969Z" fill="black" />
<path d="M7.77687 12.1285C9.2103 12.4487 10.7777 12.1928 11.9695 11.316C11.9463 11.6897 11.8339 12.1395 11.7312 12.4044C10.8859 14.5853 8.43903 15.5306 5.87471 14.6884C3.64495 13.9561 2.27859 11.3415 2.90287 9.15908C3.07028 8.57418 3.24134 8.17297 3.56251 7.66811C3.75516 9.075 4.63106 10.4434 5.90804 11.3142C6.00513 11.3796 6.07153 11.4888 6.07696 11.6152C6.07873 11.6572 6.07141 11.6966 6.06206 11.7375L5.8477 12.7105C5.8452 12.7221 5.84225 12.7338 5.83927 12.7456C5.83053 12.7804 5.82157 12.816 5.82308 12.8514C5.82762 12.9564 5.916 13.0384 6.02065 13.0338C6.06181 13.0321 6.09463 13.0151 6.1286 12.9936L7.34031 12.2168C7.43146 12.1583 7.52905 12.1207 7.63787 12.116C7.68584 12.1139 7.73205 12.1193 7.77687 12.1285Z" fill="black" />
</svg>
