<svg width="18" height="18" viewBox="0 0 18 18" fill="none" xmlns="http://www.w3.org/2000/svg">
<path d="M14.1265 14.6265C14.2242 14.7242 14.3828 14.7244 14.4771 14.6236C15.4312 13.6037 16.0828 12.3362 16.3559 10.9632C16.6453 9.50832 16.4968 8.00032 15.9291 6.62987C15.3614 5.25943 14.4001 4.08809 13.1668 3.26398C11.9334 2.43987 10.4834 2 9 2C7.51664 2 6.06659 2.43987 4.83322 3.26398C3.59985 4.08809 2.63856 5.25943 2.0709 6.62987C1.50325 8.00032 1.35472 9.50832 1.64411 10.9632C1.91722 12.3362 2.56879 13.6037 3.52289 14.6236C3.61721 14.7244 3.77584 14.7242 3.87348 14.6265L4.68665 13.8134C4.78428 13.7157 4.78384 13.5578 4.69047 13.4561C3.96663 12.6676 3.47185 11.6942 3.26241 10.6413C3.03668 9.50649 3.15253 8.33025 3.5953 7.2613C4.03808 6.19235 4.78789 5.27871 5.74991 4.6359C6.71194 3.9931 7.84298 3.65 9 3.65C10.157 3.65 11.2881 3.9931 12.2501 4.6359C13.2121 5.27871 13.9619 6.19235 14.4047 7.2613C14.8475 8.33025 14.9633 9.50649 14.7376 10.6413C14.5282 11.6942 14.0334 12.6676 13.3095 13.4561C13.2162 13.5578 13.2157 13.7157 13.3134 13.8134L14.1265 14.6265Z" fill="black" />
<path fill-rule="evenodd" clip-rule="evenodd" d="M8.2361 12.5954C8.2361 12.7334 8.34803 12.8454 8.4861 12.8454H9.4861C9.62417 12.8454 9.7361 12.7334 9.7361 12.5954V8.84535H11.2217C11.4303 8.84535 11.5472 8.60493 11.4183 8.4409L9.18268 5.59554C9.08258 5.46815 8.88961 5.46815 8.78952 5.59554L6.55389 8.4409C6.425 8.60493 6.54186 8.84535 6.75047 8.84535H8.2361V12.5954Z" fill="black" />
</svg>
