<svg width="18" height="18" viewBox="0 0 18 18" fill="none" xmlns="http://www.w3.org/2000/svg">
<path fill-rule="evenodd" clip-rule="evenodd" d="M4.42857 3C4.19188 3 4 3.19188 4 3.42857V14.5476C4 14.7975 4.20254 15 4.45238 15H10C11.933 15 13.5 13.433 13.5 11.5C13.5 10.3888 12.9822 9.39864 12.1748 8.75748C12.6896 8.14806 13 7.36028 13 6.5C13 4.567 11.433 3 9.5 3H4.42857ZM6 5V8H9.5C10.3284 8 11 7.32843 11 6.5C11 5.67157 10.3284 5 9.5 5H6ZM6 10V13H10C10.8284 13 11.5 12.3284 11.5 11.5C11.5 10.6716 10.8284 10 10 10H6Z" fill="#6B6B6B"/>
</svg>
