<svg width="18" height="18" viewBox="0 0 18 18" fill="none" xmlns="http://www.w3.org/2000/svg">
<path d="M12.7536 2.89403C12.9236 2.67643 13.2378 2.63785 13.4554 2.80786L13.9064 3.1602C14.124 3.33021 14.1626 3.64444 13.9926 3.86204L5.2078 15.106C5.03779 15.3236 4.72357 15.3622 4.50597 15.1922L4.05499 14.8399C3.83739 14.6698 3.79881 14.3556 3.96882 14.138L12.7536 2.89403Z" fill="black" />
<path fill-rule="evenodd" clip-rule="evenodd" d="M5.46224 6.82833C6.21691 6.82833 6.82868 6.21656 6.82868 5.46189C6.82868 4.70723 6.21691 4.09546 5.46224 4.09546C4.70758 4.09546 4.0958 4.70723 4.0958 5.46189C4.0958 6.21656 4.70758 6.82833 5.46224 6.82833ZM5.46224 8.19696C6.97278 8.19696 8.19731 6.97243 8.19731 5.46189C8.19731 3.95136 6.97278 2.72683 5.46224 2.72683C3.9517 2.72683 2.72717 3.95136 2.72717 5.46189C2.72717 6.97243 3.9517 8.19696 5.46224 8.19696Z" fill="black" />
<path fill-rule="evenodd" clip-rule="evenodd" d="M12.5334 13.904C13.2905 13.904 13.9043 13.2902 13.9043 12.533C13.9043 11.7759 13.2905 11.1621 12.5334 11.1621C11.7762 11.1621 11.1624 11.7759 11.1624 12.533C11.1624 13.2902 11.7762 13.904 12.5334 13.904ZM12.5334 15.2726C14.0464 15.2726 15.273 14.0461 15.273 12.533C15.273 11.02 14.0464 9.79347 12.5334 9.79347C11.0204 9.79347 9.79382 11.02 9.79382 12.533C9.79382 14.0461 11.0204 15.2726 12.5334 15.2726Z" fill="black" />
</svg>
