<svg width="18" height="18" viewBox="0 0 18 18" fill="none" xmlns="http://www.w3.org/2000/svg">
<path d="M13.9447 4.02581C14.1222 3.81427 14.0946 3.49889 13.883 3.32139L13.5 3C13.2885 2.8225 12.9731 2.85009 12.7956 3.06163L3.91926 13.64C3.74176 13.8516 3.76935 14.1669 3.98089 14.3444L4.36391 14.6658C4.57545 14.8433 4.89082 14.8157 5.06832 14.6042L13.9447 4.02581Z" fill="black" />
<path fill-rule="evenodd" clip-rule="evenodd" d="M5.60001 7.80004C6.9255 7.80004 8.00001 6.72553 8.00001 5.40004C8.00001 4.07456 6.9255 3.00004 5.60001 3.00004C4.27453 3.00004 3.20001 4.07456 3.20001 5.40004C3.20001 6.72553 4.27453 7.80004 5.60001 7.80004ZM6.50001 5.40004C6.50001 5.8971 6.09707 6.30004 5.60001 6.30004C5.10296 6.30004 4.70001 5.8971 4.70001 5.40004C4.70001 4.90299 5.10296 4.50004 5.60001 4.50004C6.09707 4.50004 6.50001 4.90299 6.50001 5.40004Z" fill="black" />
<path fill-rule="evenodd" clip-rule="evenodd" d="M12.6 15C13.9255 15 15 13.9255 15 12.6C15 11.2745 13.9255 10.2 12.6 10.2C11.2745 10.2 10.2 11.2745 10.2 12.6C10.2 13.9255 11.2745 15 12.6 15ZM13.5 12.6C13.5 13.0971 13.0971 13.5 12.6 13.5C12.1029 13.5 11.7 13.0971 11.7 12.6C11.7 12.103 12.1029 11.7 12.6 11.7C13.0971 11.7 13.5 12.103 13.5 12.6Z" fill="black" />
</svg>
