<svg width="18" height="18" viewBox="0 0 18 18" fill="none" xmlns="http://www.w3.org/2000/svg">
<path d="M12.7536 2.8941C12.9236 2.67649 13.2378 2.63791 13.4554 2.80792L13.9064 3.16026C14.124 3.33027 14.1626 3.6445 13.9926 3.8621L5.2078 15.1061C5.03779 15.3237 4.72357 15.3623 4.50597 15.1923L4.05499 14.8399C3.83739 14.6699 3.79881 14.3557 3.96882 14.1381L12.7536 2.8941Z" fill="black" />
<path fill-rule="evenodd" clip-rule="evenodd" d="M5.46224 6.82839C6.21691 6.82839 6.82868 6.21662 6.82868 5.46196C6.82868 4.70729 6.21691 4.09552 5.46224 4.09552C4.70758 4.09552 4.0958 4.70729 4.0958 5.46196C4.0958 6.21662 4.70758 6.82839 5.46224 6.82839ZM5.46224 8.19702C6.97278 8.19702 8.19731 6.97249 8.19731 5.46196C8.19731 3.95142 6.97278 2.72689 5.46224 2.72689C3.9517 2.72689 2.72717 3.95142 2.72717 5.46196C2.72717 6.97249 3.9517 8.19702 5.46224 8.19702Z" fill="black" />
<path fill-rule="evenodd" clip-rule="evenodd" d="M12.5334 13.904C13.2905 13.904 13.9043 13.2902 13.9043 12.5331C13.9043 11.776 13.2905 11.1622 12.5334 11.1622C11.7762 11.1622 11.1624 11.776 11.1624 12.5331C11.1624 13.2902 11.7762 13.904 12.5334 13.904ZM12.5334 15.2727C14.0464 15.2727 15.273 14.0461 15.273 12.5331C15.273 11.0201 14.0464 9.79353 12.5334 9.79353C11.0204 9.79353 9.79382 11.0201 9.79382 12.5331C9.79382 14.0461 11.0204 15.2727 12.5334 15.2727Z" fill="black" />
</svg>
