<svg width="18" height="18" viewBox="0 0 18 18" fill="none" xmlns="http://www.w3.org/2000/svg">
<path fill-rule="evenodd" clip-rule="evenodd" d="M11.0444 10C12.9774 10 14.5039 11.567 14.5039 13.5V14.5C14.5039 14.7761 14.28 15 14.0039 15H4.00269C3.72654 15 3.50269 14.7761 3.50269 14.5V13.5C3.50269 11.567 5.06969 10 7.00269 10H11.0444ZM11.0444 11.5H7.00269C5.94832 11.5 5.08452 12.3159 5.00817 13.3507L5.00269 13.5H13.0039L12.9984 13.3507C12.9221 12.3159 12.0988 11.5 11.0444 11.5ZM8.99998 3C10.6568 3 12 4.34315 12 6C12 7.65685 10.6568 9 8.99998 9C7.34312 9 5.99998 7.65685 5.99998 6C5.99998 4.34315 7.34312 3 8.99998 3ZM8.99998 4.5C8.17155 4.5 7.49998 5.17157 7.49998 6C7.49998 6.82843 8.17155 7.5 8.99998 7.5C9.8284 7.5 10.5 6.82843 10.5 6C10.5 5.17157 9.8284 4.5 8.99998 4.5Z" fill="black" />
</svg>
