<svg width="18" height="18" viewBox="0 0 18 18" fill="none" xmlns="http://www.w3.org/2000/svg">
<path fill-rule="evenodd" clip-rule="evenodd" d="M5.4514 3.15758C5.4282 3.1504 5.40665 3.15348 5.38699 3.16629C4.84433 3.51983 4.389 3.99749 4.06366 4.55596C3.95812 4.73712 3.93016 4.92873 3.9693 5.09649C4.26003 6.34261 5.10344 9.21005 6.90901 11.0156C8.71459 12.8212 11.582 13.6646 12.8281 13.9553C12.9959 13.9945 13.1875 13.9665 13.3687 13.861C13.9271 13.5356 14.4048 13.0803 14.7583 12.5376C14.7712 12.518 14.7742 12.4964 14.7671 12.4732C14.76 12.4504 14.7465 12.4366 14.7272 12.4288L12.0421 11.3353C11.9965 11.3168 11.9447 11.3217 11.9035 11.3487L11.9013 11.3501L11.0102 11.9279L11.0089 11.9288C10.6665 12.1517 10.2731 12.1197 10.0916 12.0968C9.86552 12.0682 9.65266 12.006 9.5232 11.9649C8.82734 11.7442 8.1497 11.2104 7.46968 10.5304C7.1213 10.182 6.76445 9.78663 6.46871 9.4029C6.18812 9.03884 5.90813 8.61673 5.78476 8.22571C5.63653 7.75589 5.73639 7.27741 5.97548 6.90943L5.97944 6.90333L6.57897 6.01859C6.60373 5.97804 6.60784 5.92804 6.58986 5.88387L5.49588 3.19739C5.48805 3.17817 5.4742 3.16465 5.4514 3.15758ZM4.56818 1.90949C5.39172 1.37295 6.51084 1.71257 6.88511 2.63167L7.97909 5.31815C8.18277 5.81833 8.12879 6.38652 7.83455 6.83939L7.83059 6.84549L7.23103 7.73027C7.22088 7.74686 7.21702 7.76024 7.21581 7.76778C7.21466 7.7749 7.21525 7.77438 7.21525 7.77438C7.25448 7.8987 7.39352 8.14563 7.6568 8.48724C7.90493 8.8092 8.21678 9.15616 8.53034 9.46971C9.17312 10.1125 9.63908 10.428 9.97681 10.5352C10.0797 10.5678 10.1898 10.5972 10.2796 10.6086C10.282 10.6089 10.2843 10.6092 10.2865 10.6094L11.0831 10.0929L11.0843 10.0921C11.5375 9.79663 12.1067 9.74204 12.6078 9.94609L15.293 11.0395C16.2121 11.4138 16.5517 12.5329 16.0151 13.3565C15.5346 14.094 14.8855 14.7133 14.1237 15.1571C13.6447 15.4361 13.0636 15.5506 12.4873 15.4161C11.2077 15.1175 7.97342 14.2014 5.84835 12.0763C3.72328 9.95121 2.80709 6.71696 2.50853 5.43731C2.37407 4.86101 2.48849 4.27992 2.76756 3.8009C3.21136 3.03909 3.83059 2.39003 4.56818 1.90949Z" fill="black" />
</svg>
