<svg width="18" height="18" viewBox="0 0 18 18" fill="none" xmlns="http://www.w3.org/2000/svg">
<path fill-rule="evenodd" clip-rule="evenodd" d="M6.19048 2.91455C5.99572 2.43628 5.41025 2.25601 4.97757 2.53791C4.33745 2.95495 3.80017 3.51831 3.41559 4.17845C3.22329 4.50854 3.1521 4.89489 3.2389 5.26692C3.53355 6.5298 4.41335 9.58065 6.37867 11.546C8.34399 13.5113 11.3948 14.3911 12.6577 14.6857C13.0297 14.7725 13.4161 14.7013 13.7462 14.509C14.4063 14.1245 14.9697 13.5872 15.3867 12.9471C15.6686 12.5144 15.4884 11.9289 15.0101 11.7342L12.325 10.6407C12.0514 10.5293 11.7406 10.5593 11.4933 10.7208L10.3949 11.4384C10.1908 11.5717 9.94163 11.6173 9.70932 11.5436C9.19252 11.3797 8.23873 11.0087 7.57732 10.3473C6.91539 9.68538 6.54631 8.73253 6.38371 8.21719C6.31079 7.98607 6.35607 7.7384 6.4881 7.53518L7.20562 6.43079C7.36611 6.18378 7.39556 5.87385 7.28446 5.60103L6.19048 2.91455Z" fill="black" />
</svg>
