<svg width="18" height="18" viewBox="0 0 18 18" fill="none" xmlns="http://www.w3.org/2000/svg">
<path fill-rule="evenodd" clip-rule="evenodd" d="M15 4H6V5.5H13C13.2761 5.5 13.5 5.72386 13.5 6V10H15V4ZM4.5 3V5.5H2C1.72386 5.5 1.5 5.72386 1.5 6V15C1.5 15.2761 1.72386 15.5 2 15.5H13C13.2761 15.5 13.5 15.2761 13.5 15V11.5H16C16.2761 11.5 16.5 11.2761 16.5 11V3C16.5 2.72386 16.2761 2.5 16 2.5H5C4.72386 2.5 4.5 2.72386 4.5 3ZM3 7H4.5H6H12V10V11.5V14H3V7ZM7.59524 9.62075L8.54762 7.75H9.5L8.54762 9.62075H9.5V10.5561H7.97619V11.1173H9.5L9.5 12.0527H7.97619V13.25H7.02381L7.02381 12.0527L5.5 12.0527L5.5 11.1173H7.02381V10.5561H5.5L5.5 9.62075H6.45238L5.5 7.75H6.45238L7.40476 9.62075H7.59524Z" fill="black" />
</svg>
