<svg width="18" height="18" viewBox="0 0 18 18" fill="none" xmlns="http://www.w3.org/2000/svg">
<path fill-rule="evenodd" clip-rule="evenodd" d="M12.3826 8.90367C12.1713 9.08244 12 9.00669 12 8.72379V7.25H6.875C5.56332 7.25 4.5 8.31332 4.5 9.625C4.5 10.9367 5.56332 12 6.875 12H13.5C13.7761 12 14 12.2239 14 12.5V13C14 13.2761 13.7761 13.5 13.5 13.5H6.875C4.7349 13.5 3 11.7651 3 9.625C3 7.4849 4.7349 5.75 6.875 5.75H12V4.27423C12 3.99612 12.1734 3.91735 12.3826 4.09435L14.8423 6.17532C15.0536 6.35409 15.0515 6.6457 14.8423 6.8227L12.3826 8.90367Z" fill="black" />
</svg>
