<svg width="18" height="18" viewBox="0 0 18 18" fill="none" xmlns="http://www.w3.org/2000/svg">
<path fill-rule="evenodd" clip-rule="evenodd" d="M4.67591 10.25C5.21758 12.1271 6.94848 13.5 9.00003 13.5C10.0315 13.5 10.9819 13.153 11.7409 12.5693L12.8083 13.6367C11.7724 14.4886 10.4459 15 9.00003 15C6.11497 15 3.7055 12.9637 3.13042 10.25H1.75759C1.47244 10.25 1.3961 10.0774 1.57629 9.86442L3.67376 7.38558C3.85217 7.17473 4.1461 7.17263 4.32629 7.38558L6.42377 9.86442C6.60217 10.0753 6.52278 10.25 6.24246 10.25H4.67591ZM14.9171 8H16.2425C16.5228 8 16.6022 8.17473 16.4238 8.38558L14.3263 10.8644C14.1461 11.0774 13.8522 11.0753 13.6738 10.8644L11.5763 8.38558C11.3961 8.17263 11.4724 8 11.7576 8H13.3885C12.9338 5.99601 11.1416 4.5 9.00003 4.5C7.71375 4.5 6.55351 5.03968 5.73341 5.90496L4.67246 4.84401C5.76427 3.70741 7.29953 3 9.00003 3C11.973 3 14.441 5.16229 14.9171 8Z" fill="black" />
</svg>
