<svg width="18" height="18" viewBox="0 0 18 18" fill="none" xmlns="http://www.w3.org/2000/svg">
<path fill-rule="evenodd" clip-rule="evenodd" d="M4.67588 10.25C5.21755 12.1271 6.94845 13.5 8.99999 13.5C10.0315 13.5 10.9819 13.153 11.7408 12.5693L12.8083 13.6367C11.7723 14.4886 10.4459 15 8.99999 15C6.11494 15 3.70547 12.9637 3.13039 10.25H1.75756C1.47241 10.25 1.39607 10.0774 1.57625 9.86442L3.67373 7.38558C3.85214 7.17473 4.14607 7.17263 4.32625 7.38558L6.42373 9.86442C6.60214 10.0753 6.52275 10.25 6.24243 10.25H4.67588ZM14.917 8H16.2424C16.5227 8 16.6021 8.17473 16.4237 8.38558L14.3263 10.8644C14.1461 11.0774 13.8521 11.0753 13.6737 10.8644L11.5763 8.38558C11.3961 8.17263 11.4724 8 11.7576 8H13.3885C12.9338 5.99601 11.1416 4.5 8.99999 4.5C7.71371 4.5 6.55348 5.03968 5.73338 5.90496L4.67243 4.84401C5.76424 3.70741 7.2995 3 8.99999 3C11.973 3 14.441 5.16229 14.917 8Z" fill="black" />
</svg>
