<svg width="18" height="18" viewBox="0 0 18 18" fill="none" xmlns="http://www.w3.org/2000/svg">
<path fill-rule="evenodd" clip-rule="evenodd" d="M0.740431 11L2.034 11C2.90216 14.0314 5.6943 16.25 9.00463 16.25C13.0087 16.25 16.2546 13.0041 16.2546 9C16.2546 4.99594 13.0087 1.75 9.00463 1.75C8.62883 1.75001 8.25972 1.7786 7.89938 1.83371L8.29064 3.29392C8.52462 3.26493 8.76294 3.25 9.00472 3.25C12.1803 3.25005 14.7546 5.82439 14.7546 9C14.7546 12.1756 12.1803 14.75 9.00463 14.75C6.53229 14.75 4.4244 13.1896 3.612 11L4.76884 11C4.97218 11 5.09046 10.7702 4.97227 10.6047L2.95807 7.78481C2.85836 7.64522 2.6509 7.64522 2.5512 7.78481L0.536997 10.6047C0.418806 10.7702 0.537087 11 0.740431 11ZM3.40259 4.3979L4.46941 5.46471C4.16084 5.85995 3.9028 6.29659 3.70504 6.76495L2.24523 6.3738C2.52587 5.652 2.9188 4.9862 3.40259 4.3979ZM6.44825 2.21357C5.72678 2.48549 5.06016 2.86916 4.46946 3.34344L5.53808 4.41206C5.93477 4.1119 6.37157 3.86201 6.83899 3.67184L6.44825 2.21357ZM10.2546 5.5L9.00463 8L8.75463 8L7.50463 5.5L6.25463 5.5L7.50463 8L6.25463 8L6.25463 9.25L8.25463 9.25L8.25463 10L6.25463 10L6.25463 11.25L8.25463 11.25L8.25463 12.85L9.50463 12.85L9.50463 11.25L11.5046 11.25L11.5046 10L9.50463 10L9.50463 9.25L11.5046 9.25L11.5046 8L10.2546 8L11.5046 5.5L10.2546 5.5Z" fill="black" />
</svg>
