<svg width="18" height="18" viewBox="0 0 18 18" fill="none" xmlns="http://www.w3.org/2000/svg">
<path fill-rule="evenodd" clip-rule="evenodd" d="M9 5.5V6.99243C9 7.27758 8.82737 7.35392 8.61442 7.17374L6.13558 5.07626C5.92473 4.89785 5.92263 4.60392 6.13558 4.42374L8.61442 2.32626C8.82527 2.14785 9 2.22724 9 2.50756V4C12.3137 4 15 6.68629 15 10C15 13.3137 12.3137 16 9 16C5.68629 16 3 13.3137 3 10H4.5C4.5 12.4853 6.51472 14.5 9 14.5C11.4853 14.5 13.5 12.4853 13.5 10C13.5 7.51471 11.4853 5.5 9 5.5Z" fill="black" />
</svg>
