<svg width="18" height="18" viewBox="0 0 18 18" fill="none" xmlns="http://www.w3.org/2000/svg">
<path fill-rule="evenodd" clip-rule="evenodd" d="M9 5.50004V6.99247C9 7.27762 8.82737 7.35397 8.61442 7.17378L6.13558 5.0763C5.92473 4.89789 5.92263 4.60397 6.13558 4.42378L8.61442 2.3263C8.82527 2.14789 9 2.22729 9 2.50761V4.00004C12.3137 4.00004 15 6.68633 15 10C15 13.3138 12.3137 16 9 16C5.68629 16 3 13.3138 3 10H4.5C4.5 12.4853 6.51472 14.5 9 14.5C11.4853 14.5 13.5 12.4853 13.5 10C13.5 7.51476 11.4853 5.50004 9 5.50004Z" fill="black" />
</svg>
