<svg width="18" height="18" viewBox="0 0 18 18" fill="none" xmlns="http://www.w3.org/2000/svg">
<path fill-rule="evenodd" clip-rule="evenodd" d="M9 5.50001V6.99244C9 7.27759 8.82737 7.35394 8.61442 7.17375L6.13558 5.07627C5.92473 4.89786 5.92263 4.60394 6.13558 4.42375L8.61442 2.32627C8.82527 2.14786 9 2.22726 9 2.50758V4.00001C12.3137 4.00001 15 6.6863 15 10C15 13.3137 12.3137 16 9 16C5.68629 16 3 13.3137 3 10H4.5C4.5 12.4853 6.51472 14.5 9 14.5C11.4853 14.5 13.5 12.4853 13.5 10C13.5 7.51473 11.4853 5.50001 9 5.50001Z" fill="black" />
</svg>
