<svg width="18" height="18" viewBox="0 0 18 18" fill="none" xmlns="http://www.w3.org/2000/svg">
<path fill-rule="evenodd" clip-rule="evenodd" d="M16.0526 9.66789L16.8644 12.6974C16.9358 12.9641 16.7775 13.2383 16.5108 13.3098L4.9197 16.4156C4.65297 16.4871 4.3788 16.3288 4.30733 16.0621L2.59402 9.66789H1.62987C1.35114 9.66789 1.12518 9.44656 1.12518 9.16006V8.67572C1.12518 8.39526 1.33922 8.16789 1.62987 8.16789H2.19209L1.46032 5.43687C1.38885 5.17014 1.54714 4.89597 1.81387 4.8245L13.405 1.71867C13.6717 1.6472 13.9459 1.80549 14.0174 2.07222L15.6507 8.16789H16.6193C16.8987 8.16789 17.1252 8.38922 17.1252 8.67572V9.16006C17.1252 9.44053 16.8945 9.66789 16.6193 9.66789H16.0526ZM3.16803 6.01457L5.4974 14.7079L15.1567 12.1197L12.8273 3.42638L3.16803 6.01457ZM4.37518 8.16789H6.62518V9.66789H4.37518V8.16789ZM7.87518 8.16789H10.1252V9.66789H7.87518V8.16789ZM11.3752 8.16789H13.6252V9.66789H11.3752V8.16789Z" fill="black" />
</svg>
