<svg width="18" height="18" viewBox="0 0 18 18" fill="none" xmlns="http://www.w3.org/2000/svg">
<path fill-rule="evenodd" clip-rule="evenodd" d="M16.0526 9.66792L16.8644 12.6974C16.9358 12.9642 16.7775 13.2383 16.5108 13.3098L4.9197 16.4156C4.65297 16.4871 4.3788 16.3288 4.30733 16.0621L2.59402 9.66792H1.62987C1.35114 9.66792 1.12518 9.44659 1.12518 9.16009V8.67575C1.12518 8.39529 1.33922 8.16792 1.62987 8.16792H2.19209L1.46032 5.4369C1.38885 5.17017 1.54714 4.896 1.81387 4.82453L13.405 1.7187C13.6717 1.64723 13.9459 1.80552 14.0174 2.07225L15.6507 8.16792H16.6193C16.8987 8.16792 17.1252 8.38925 17.1252 8.67575V9.16009C17.1252 9.44056 16.8945 9.66792 16.6193 9.66792H16.0526ZM3.16803 6.0146L5.4974 14.7079L15.1567 12.1197L12.8273 3.42641L3.16803 6.0146ZM4.37518 8.16792H6.62518V9.66792H4.37518V8.16792ZM7.87518 8.16792H10.1252V9.66792H7.87518V8.16792ZM11.3752 8.16792H13.6252V9.66792H11.3752V8.16792Z" fill="black" />
</svg>
