<svg width="18" height="18" viewBox="0 0 18 18" fill="none" xmlns="http://www.w3.org/2000/svg">
<path fill-rule="evenodd" clip-rule="evenodd" d="M16.0526 9.66791L16.8644 12.6974C16.9358 12.9642 16.7775 13.2383 16.5108 13.3098L4.9197 16.4156C4.65297 16.4871 4.3788 16.3288 4.30733 16.0621L2.59402 9.66791H1.62987C1.35114 9.66791 1.12518 9.44658 1.12518 9.16007V8.67574C1.12518 8.39527 1.33922 8.16791 1.62987 8.16791H2.19209L1.46032 5.43688C1.38885 5.17015 1.54714 4.89598 1.81387 4.82451L13.405 1.71868C13.6717 1.64721 13.9459 1.8055 14.0174 2.07224L15.6507 8.16791H16.6193C16.8987 8.16791 17.1252 8.38924 17.1252 8.67574V9.16007C17.1252 9.44054 16.8945 9.66791 16.6193 9.66791H16.0526ZM3.16803 6.01458L5.4974 14.7079L15.1567 12.1197L12.8273 3.42639L3.16803 6.01458ZM4.37518 8.16791H6.62518V9.66791H4.37518V8.16791ZM7.87518 8.16791H10.1252V9.66791H7.87518V8.16791ZM11.3752 8.16791H13.6252V9.66791H11.3752V8.16791Z" fill="black" />
</svg>
