<svg width="18" height="18" viewBox="0 0 18 18" fill="none" xmlns="http://www.w3.org/2000/svg">
<path d="M2.5 3C2.22386 3 2 3.22386 2 3.5V14.5C2 14.7761 2.22386 15 2.5 15H3.5C3.77614 15 4 14.7761 4 14.5V10H9V14.5C9 14.7761 9.22386 15 9.5 15H10.5C10.7761 15 11 14.7761 11 14.5V3.5C11 3.22386 10.7761 3 10.5 3H9.5C9.22386 3 9 3.22386 9 3.5V8H4V3.5C4 3.22386 3.77614 3 3.5 3H2.5Z" fill="#6B6B6B"/>
<path d="M16.3668 15.1447H13.0727V14.3032L14.1905 13.1732C14.2685 13.0933 14.3394 13.0198 14.4036 12.9527C14.6015 12.7453 14.7339 12.598 14.8033 12.5093C14.8954 12.3896 14.9573 12.2846 14.9936 12.1939C15.0295 12.1041 15.0473 12.0117 15.0473 11.9156C15.0473 11.7711 15.0078 11.6911 14.9548 11.6446L14.9536 11.6436C14.8939 11.5901 14.8069 11.5559 14.6758 11.5559C14.288 11.5559 13.9789 11.8117 13.6953 12.0465L13.6843 12.0556L13 11.245C13.0161 11.2312 13.0323 11.2174 13.0484 11.2036C13.2425 11.0378 13.4389 10.87 13.6646 10.7492C13.9683 10.5867 14.3183 10.5 14.7402 10.5C15.3115 10.5 15.7932 10.7225 16.0529 11.1254C16.2989 11.5072 16.2972 12.0103 16.1303 12.423C16.0552 12.6119 15.9394 12.8005 15.786 12.9909C15.5406 13.2992 15.2464 13.5679 14.9542 13.8348C14.8638 13.9173 14.7737 13.9997 14.6852 14.083H16.3668V15.1447Z" fill="#6B6B6B"/>
</svg>
