<svg width="18" height="18" viewBox="0 0 18 18" fill="none" xmlns="http://www.w3.org/2000/svg">
<path fill-rule="evenodd" clip-rule="evenodd" d="M5.30748 9.84425L4.50045 13.25L13.5 9L4.49997 4.75L5.32115 8.15712L8.56988 8.48199C8.67212 8.49222 8.74997 8.57825 8.74997 8.681V9.319C8.74997 9.42175 8.67212 9.50779 8.56988 9.51801L5.30748 9.84425ZM15.7397 9.4478L3.22036 15.7081C2.97337 15.8316 2.67303 15.7315 2.54953 15.4846C2.49741 15.3803 2.48333 15.2612 2.50973 15.1477L3.93131 9.0343L2.50695 2.85124C2.44496 2.58214 2.61285 2.31375 2.88195 2.25176C2.99515 2.22568 3.11391 2.23983 3.21782 2.29179L15.7397 8.55339C15.9867 8.6769 16.0868 8.97724 15.9633 9.22422C15.9149 9.32097 15.8365 9.39942 15.7397 9.4478Z" fill="black" />
</svg>
