<svg width="18" height="18" viewBox="0 0 18 18" fill="none" xmlns="http://www.w3.org/2000/svg">
<path fill-rule="evenodd" clip-rule="evenodd" d="M5.30748 9.84427L4.50045 13.25L13.5 9.00002L4.49997 4.75002L5.32115 8.15714L8.56988 8.48201C8.67212 8.49223 8.74997 8.57827 8.74997 8.68102V9.31902C8.74997 9.42177 8.67212 9.50781 8.56988 9.51803L5.30748 9.84427ZM15.7397 9.44782L3.22036 15.7082C2.97337 15.8317 2.67303 15.7316 2.54953 15.4846C2.49741 15.3804 2.48333 15.2612 2.50973 15.1477L3.93131 9.03432L2.50695 2.85126C2.44496 2.58216 2.61285 2.31377 2.88195 2.25178C2.99515 2.2257 3.11391 2.23985 3.21782 2.29181L15.7397 8.55341C15.9867 8.67692 16.0868 8.97726 15.9633 9.22424C15.9149 9.32099 15.8365 9.39944 15.7397 9.44782Z" fill="black" />
</svg>
