<svg width="18" height="18" viewBox="0 0 18 18" fill="none" xmlns="http://www.w3.org/2000/svg">
<path fill-rule="evenodd" clip-rule="evenodd" d="M2.5 5H4.75C4.88807 5 5 5.11193 5 5.25V6.25C5 6.38807 4.88807 6.5 4.75 6.5H3.5V14.5H14.5V9.25C14.5 9.11193 14.6119 9 14.75 9H15.75C15.8881 9 16 9.11193 16 9.25V15.5C16 15.7761 15.7761 16 15.5 16H2.5C2.22386 16 2 15.7761 2 15.5V5.5C2 5.22386 2.22386 5 2.5 5ZM12.3922 2.323L15.8578 5.177C16.0781 5.35846 16.0744 5.64461 15.8578 5.823L12.3922 8.677C12.1719 8.85846 12 8.77418 12 8.49561V6.25H9.26193C8.98826 6.25 8.75488 6.46964 8.75488 6.74058V11.7567C8.75488 11.8838 8.64362 12.004 8.50638 12.004H7.4985C7.36809 12.004 7.25 11.8959 7.25 11.7626V6.25303C7.25 5.41943 7.92288 4.75 8.75293 4.75H12V2.50439C12 2.21579 12.1756 2.14461 12.3922 2.323Z" fill="black" />
</svg>
