<svg width="18" height="18" viewBox="0 0 18 18" fill="none" xmlns="http://www.w3.org/2000/svg">
<path fill-rule="evenodd" clip-rule="evenodd" d="M2 3H16C16.2761 3 16.5 3.22386 16.5 3.5V15.5C16.5 15.7761 16.2761 16 16 16H2C1.72386 16 1.5 15.7761 1.5 15.5V3.5C1.5 3.22386 1.72386 3 2 3ZM2.75 4.25V14.75H15.25V4.25H2.75ZM5 11H7V13H5V11Z" fill="black" />
<path d="M8 13H10V9.5H8V13Z" fill="black" />
<path d="M11 11H13V13H11V11Z" fill="black" />
<path d="M11 6H13V10H11V6Z" fill="black" />
<path d="M8 6H10V8.5H8V6Z" fill="black" />
<path d="M5 6H7V10H5V6Z" fill="black" />
</svg>
