<svg width="18" height="18" viewBox="0 0 18 18" fill="none" xmlns="http://www.w3.org/2000/svg">
<path fill-rule="evenodd" clip-rule="evenodd" d="M8.99997 13.25L5.48832 15.0962C5.2439 15.2247 4.94158 15.1307 4.81308 14.8863C4.76191 14.789 4.74426 14.6775 4.76284 14.5691L5.43351 10.6588L2.59252 7.88953C2.39478 7.69678 2.39073 7.38023 2.58349 7.18248C2.66024 7.10374 2.76081 7.0525 2.86963 7.03669L6.79578 6.46618L8.5516 2.90849C8.67381 2.66086 8.97363 2.55919 9.22125 2.68141C9.31986 2.73007 9.39967 2.80988 9.44834 2.90849L11.2042 6.46618L15.1303 7.03669C15.4036 7.0764 15.5929 7.33012 15.5532 7.60339C15.5374 7.71221 15.4862 7.81278 15.4074 7.88953L12.5664 10.6588L13.2371 14.5691C13.2838 14.8413 13.101 15.0997 12.8288 15.1464C12.7204 15.165 12.609 15.1474 12.5116 15.0962L8.99997 13.25Z" fill="black" />
</svg>
