<svg width="18" height="18" viewBox="0 0 18 18" fill="none" xmlns="http://www.w3.org/2000/svg">
<path fill-rule="evenodd" clip-rule="evenodd" d="M13.9961 10.5C16.0672 10.5 17.7461 12.1789 17.7461 14.25C17.7461 16.3211 16.0672 18 13.9961 18C11.925 18 10.2461 16.3211 10.2461 14.25C10.2461 12.1789 11.925 10.5 13.9961 10.5ZM15.9961 13.75H11.9961V14.75H15.9961V13.75ZM14.9961 2C15.2723 2 15.4961 2.22386 15.4961 2.5V4.5L17.2522 9.32913C17.3465 9.58864 17.2127 9.87553 16.9531 9.9699C16.8984 9.98981 16.8405 10 16.7823 10H16.632L16.6293 9.99874L3.99611 10V15L9.05212 15.0009C9.13223 15.5328 9.29613 16.0372 9.52994 16.5004L2.99611 16.5C2.71997 16.5 2.49611 16.2761 2.49611 16V10H1.20996C0.933819 10 0.709961 9.77614 0.709961 9.5C0.709961 9.44172 0.720149 9.3839 0.740064 9.32913L2.49611 4.5V2.5C2.49611 2.22386 2.71997 2 2.99611 2H14.9961ZM11.2865 5.9H9.72611V8.5H11.6519L11.2865 5.9ZM13.9961 5.9H12.7507L13.1161 8.5H14.9961L13.9961 5.9ZM8.27611 5.9H6.69832L6.33292 8.5H8.27611V5.9ZM5.23407 5.9H3.99611L2.99611 8.5H4.86867L5.23407 5.9ZM13.9961 3.5H3.99611V4.5H13.9961V3.5Z" fill="black" />
</svg>
