<svg width="18" height="18" viewBox="0 0 18 18" fill="none" xmlns="http://www.w3.org/2000/svg">
<path d="M13.3826 9.62929C13.1713 9.80806 13 9.73232 13 9.44941V7.97563H7.5C7.22386 7.97563 7 7.75177 7 7.47563V6.97563C7 6.69948 7.22386 6.47563 7.5 6.47563H13V4.99986C13 4.72174 13.1734 4.64297 13.3826 4.81998L15.8423 6.90094C16.0536 7.07971 16.0515 7.37132 15.8423 7.54833L13.3826 9.62929Z" fill="black" />
<path d="M4.6174 13.178C4.8287 13.3568 5 13.281 5 12.9981V11.5243H10.5C10.7761 11.5243 11 11.3005 11 11.0243V10.5243C11 10.2482 10.7761 10.0243 10.5 10.0243H5V8.54858C5 8.27046 4.82662 8.19169 4.6174 8.3687L2.1577 10.4497C1.94639 10.6284 1.94848 10.92 2.1577 11.097L4.6174 13.178Z" fill="black" />
</svg>
