<svg width="18" height="18" viewBox="0 0 18 18" fill="none" xmlns="http://www.w3.org/2000/svg">
<path fill-rule="evenodd" clip-rule="evenodd" d="M2.14645 7.8033C2.05268 7.70953 2 7.58236 2 7.44975V2.5C2 2.22386 2.22386 2 2.5 2H7.44975C7.58236 2 7.70953 2.05268 7.8033 2.14645L15.7886 10.1317C15.9838 10.327 15.9838 10.6436 15.7886 10.8388L10.8388 15.7886C10.6436 15.9838 10.327 15.9838 10.1317 15.7886L2.14645 7.8033ZM4.82843 4.82843C4.4379 5.21895 4.4379 5.85212 4.82843 6.24264C5.21895 6.63316 5.85212 6.63316 6.24264 6.24264C6.63316 5.85212 6.63316 5.21895 6.24264 4.82843C5.85212 4.4379 5.21895 4.4379 4.82843 4.82843Z" fill="black" />
</svg>
