<svg width="18" height="18" viewBox="0 0 18 18" fill="none" xmlns="http://www.w3.org/2000/svg">
<path d="M6.5 1C6.22386 1 6 1.22386 6 1.5V3C6 3.27614 6.22386 3.5 6.5 3.5H11.5C11.7761 3.5 12 3.27614 12 3V1.5C12 1.22386 11.7761 1 11.5 1H6.5Z" fill="black" />
<path d="M3 2.00002H5V3.50003H4V14.5H14V3.50003H13V2.00002H15C15.2761 2.00002 15.5 2.22388 15.5 2.50002V15.5C15.5 15.7762 15.2761 16 15 16H3C2.72386 16 2.5 15.7762 2.5 15.5V2.50003C2.5 2.22388 2.72386 2.00002 3 2.00002Z" fill="black" />
<path d="M6 6H12V7.2H6V6Z" fill="black" />
<path d="M12 8.70001H6V9.90001H12V8.70001Z" fill="black" />
</svg>
