<svg width="18" height="18" viewBox="0 0 18 18" fill="none" xmlns="http://www.w3.org/2000/svg">
<path d="M2.5 3C2.22386 3 2 3.22386 2 3.5V14.5C2 14.7761 2.22386 15 2.5 15H3.5C3.77614 15 4 14.7761 4 14.5V10H9V14.5C9 14.7761 9.22386 15 9.5 15H10.5C10.7761 15 11 14.7761 11 14.5V3.5C11 3.22386 10.7761 3 10.5 3H9.5C9.22386 3 9 3.22386 9 3.5V8H4V3.5C4 3.22386 3.77614 3 3.5 3H2.5Z" fill="#6B6B6B"/>
<path fill-rule="evenodd" clip-rule="evenodd" d="M14.1826 11.3508C14.0544 11.3924 13.9054 11.4664 13.7348 11.577L13.6109 11.6573L13.0288 10.7902L13.1466 10.7054C13.5659 10.4035 14.0633 10.2552 14.6317 10.2552C15.0934 10.2552 15.4769 10.3485 15.7665 10.5519C16.0654 10.7602 16.2173 11.0566 16.2173 11.4248C16.2173 11.7253 16.1252 11.9885 15.9376 12.2055C15.8467 12.3106 15.739 12.3983 15.6159 12.4695C15.7773 12.5296 15.9161 12.6119 16.0294 12.7188C16.2423 12.9179 16.3432 13.1848 16.3432 13.5019C16.3432 13.9556 16.176 14.3228 15.8366 14.5846C15.5018 14.8406 15.0374 14.9586 14.4647 14.9586C13.9833 14.9586 13.5505 14.8786 13.1692 14.715L13.0784 14.676V13.5626L13.2961 13.6728C13.4518 13.7515 13.6245 13.8164 13.8146 13.8667C14.002 13.9163 14.1864 13.9408 14.368 13.9408C14.6554 13.9408 14.8383 13.8909 14.9431 13.8163C15.0352 13.7507 15.094 13.6405 15.094 13.4492C15.094 13.369 15.0778 13.3102 15.0525 13.2662C15.0276 13.223 14.989 13.1854 14.9296 13.155C14.7986 13.0879 14.5669 13.0455 14.2128 13.0455H13.7376V12.0511H14.2186C14.544 12.0511 14.7537 12.0079 14.8712 11.9417C14.9689 11.886 15.0266 11.7929 15.0266 11.624C15.0266 11.4951 14.988 11.4222 14.9307 11.3765C14.8671 11.3257 14.6909 11.2877 14.5673 11.2877C14.4436 11.2877 14.3156 11.3082 14.1826 11.3508Z" fill="#6B6B6B"/>
</svg>
