<svg width="18" height="18" viewBox="0 0 18 18" fill="none" xmlns="http://www.w3.org/2000/svg">
<path fill-rule="evenodd" clip-rule="evenodd" d="M8.25 4.5H5V5.25C5 5.38807 4.88807 5.5 4.75 5.5H3.75C3.61193 5.5 3.5 5.38807 3.5 5.25V3.25C3.5 3.11193 3.61193 3 3.75 3H14.25C14.3881 3 14.5 3.11193 14.5 3.25V5.25C14.5 5.38807 14.3881 5.5 14.25 5.5H13.25C13.1119 5.5 13 5.38807 13 5.25V4.5H9.75V13.5H11.25C11.3881 13.5 11.5 13.6119 11.5 13.75V14.75C11.5 14.8881 11.3881 15 11.25 15H6.75C6.61193 15 6.5 14.8881 6.5 14.75V13.75C6.5 13.6119 6.61193 13.5 6.75 13.5H8.25V4.5Z" fill="black" />
</svg>
