<svg width="18" height="18" viewBox="0 0 18 18" fill="none" xmlns="http://www.w3.org/2000/svg">
<path fill-rule="evenodd" clip-rule="evenodd" d="M15.0962 6.43929C15.2915 6.24403 15.2915 5.92744 15.0962 5.73218L14.3891 5.02507C14.1938 4.82981 13.8772 4.82981 13.682 5.02507L7.67157 11.0355L4.48959 7.8535C4.29433 7.65824 3.97775 7.65824 3.78249 7.8535L3.07538 8.56061C2.88012 8.75587 2.88012 9.07245 3.07538 9.26771L6.61091 12.8032L7.31802 13.5104C7.33022 13.5226 7.3429 13.534 7.35599 13.5447C7.55238 13.7049 7.84207 13.6934 8.02513 13.5104L8.73223 12.8032C8.73239 12.8031 8.73254 12.8029 8.7327 12.8028L15.0962 6.43929Z" fill="black" />
</svg>
