<svg width="18" height="18" viewBox="0 0 18 18" fill="none" xmlns="http://www.w3.org/2000/svg">
<path fill-rule="evenodd" clip-rule="evenodd" d="M5.6174 8.90367C5.8287 9.08244 6 9.00669 6 8.72379V7.25H11.125C12.4367 7.25 13.5 8.31332 13.5 9.625C13.5 10.9367 12.4367 12 11.125 12H4.5C4.22386 12 4 12.2239 4 12.5V13C4 13.2761 4.22386 13.5 4.5 13.5H11.125C13.2651 13.5 15 11.7651 15 9.625C15 7.4849 13.2651 5.75 11.125 5.75H6V4.27423C6 3.99612 5.82662 3.91735 5.6174 4.09435L3.1577 6.17532C2.94639 6.35409 2.94848 6.6457 3.1577 6.8227L5.6174 8.90367Z" fill="black" />
</svg>
