<svg width="18" height="18" viewBox="0 0 18 18" fill="none" xmlns="http://www.w3.org/2000/svg">
<path fill-rule="evenodd" clip-rule="evenodd" d="M9.00006 16C12.8661 16 16.0001 12.866 16.0001 9C16.0001 5.13401 12.8661 2 9.00006 2C5.13407 2 2.00006 5.13401 2.00006 9C2.00006 12.866 5.13407 16 9.00006 16ZM6.66673 8C6.11445 8 5.66673 7.55228 5.66673 7C5.66673 6.44772 6.11445 6 6.66673 6C7.21902 6 7.66673 6.44772 7.66673 7C7.66673 7.55228 7.21902 8 6.66673 8ZM11.6667 8C11.1144 8 10.6667 7.55228 10.6667 7C10.6667 6.44772 11.1144 6 11.6667 6C12.219 6 12.6667 6.44772 12.6667 7C12.6667 7.55228 12.219 8 11.6667 8ZM11.6667 11V10.5C11.6667 10.2239 11.4429 10 11.1667 10H7.16673C6.89059 10 6.66673 10.2239 6.66673 10.5V11C6.66673 11.2761 6.89059 11.5 7.16673 11.5H11.1667C11.4429 11.5 11.6667 11.2761 11.6667 11Z" fill="black" />
</svg>
