<svg width="18" height="18" viewBox="0 0 18 18" fill="none" xmlns="http://www.w3.org/2000/svg">
<path d="M6.66669 8C6.1144 8 5.66669 7.55228 5.66669 7C5.66669 6.44772 6.1144 6 6.66669 6C7.21897 6 7.66669 6.44772 7.66669 7C7.66669 7.55228 7.21897 8 6.66669 8Z" fill="black" />
<path d="M11.6667 8C11.1144 8 10.6667 7.55228 10.6667 7C10.6667 6.44772 11.1144 6 11.6667 6C12.219 6 12.6667 6.44772 12.6667 7C12.6667 7.55228 12.219 8 11.6667 8Z" fill="black" />
<path d="M11.6667 11V10.5C11.6667 10.2239 11.4428 10 11.1667 10H7.16669C6.89054 10 6.66669 10.2239 6.66669 10.5V11C6.66669 11.2761 6.89054 11.5 7.16669 11.5H11.1667C11.4428 11.5 11.6667 11.2761 11.6667 11Z" fill="black" />
<path fill-rule="evenodd" clip-rule="evenodd" d="M16 9C16 12.866 12.866 16 9 16C5.13401 16 2 12.866 2 9C2 5.13401 5.13401 2 9 2C12.866 2 16 5.13401 16 9ZM14.5 9C14.5 12.0376 12.0376 14.5 9 14.5C5.96243 14.5 3.5 12.0376 3.5 9C3.5 5.96243 5.96243 3.5 9 3.5C12.0376 3.5 14.5 5.96243 14.5 9Z" fill="black" />
</svg>
