<svg width="18" height="18" viewBox="0 0 18 18" fill="none" xmlns="http://www.w3.org/2000/svg">
<path fill-rule="evenodd" clip-rule="evenodd" d="M2 2.5C2 2.22386 2.22386 2 2.5 2H13.5C13.7761 2 14 2.22386 14 2.5V9H10C9.44772 9 9 9.44771 9 10V12C9 12.3064 9.17313 12.5866 9.44721 12.7236C9.58492 12.7925 9.53592 13 9.38197 13H9C7.89543 13 7 13.8954 7 15V15.5H2.5C2.22386 15.5 2 15.2761 2 15V2.5ZM5 5H11V6.5H5V5ZM5 8H8V9.5H5V8Z" fill="black" />
<path d="M10 10.5C10 10.2239 10.2239 10 10.5 10H13.5C13.7761 10 14 10.2239 14 10.5V11.5C14 11.7761 13.7761 12 13.5 12H10.5C10.2239 12 10 11.7761 10 11.5V10.5Z" fill="black" />
<path d="M13.0645 12.6935L13.386 13.6581C13.4541 13.8623 13.6452 14 13.8604 14H15C15.5523 14 16 14.4477 16 15V15.6944C16 15.8632 15.8632 16 15.6944 16H8.30556C8.1368 16 8 15.8632 8 15.6944V15C8 14.4477 8.44772 14 9 14H10.1396C10.3548 14 10.5459 13.8623 10.614 13.6581L10.9355 12.6935H13.0645Z" fill="black" />
</svg>
