<svg width="18" height="18" viewBox="0 0 18 18" fill="none" xmlns="http://www.w3.org/2000/svg">
<path d="M3.5 14V3.5H12.5V9H14V2.5C14 2.22386 13.7761 2 13.5 2H2.5C2.22386 2 2 2.22386 2 2.5V15C2 15.2761 2.22386 15.5 2.5 15.5H7V14H3.5Z" fill="black" />
<path d="M13.0645 12.6935L13.386 13.6581C13.4541 13.8623 13.6452 14 13.8604 14H15C15.5523 14 16 14.4477 16 15V15.6944C16 15.8632 15.8632 16 15.6944 16H8.30556C8.1368 16 8 15.8632 8 15.6944V15C8 14.4477 8.44772 14 9 14H10.1396C10.3548 14 10.5459 13.8623 10.614 13.6581L10.9355 12.6935H13.0645Z" fill="black" />
<path d="M11 5H5V6.5H11V5Z" fill="black" />
<path d="M5 8H8V9.5H5V8Z" fill="black" />
<path d="M10.5 10C10.2239 10 10 10.2239 10 10.5V11.5C10 11.7761 10.2239 12 10.5 12H13.5C13.7761 12 14 11.7761 14 11.5V10.5C14 10.2239 13.7761 10 13.5 10H10.5Z" fill="black" />
</svg>
