<svg width="18" height="18" viewBox="0 0 18 18" fill="none" xmlns="http://www.w3.org/2000/svg">
<path fill-rule="evenodd" clip-rule="evenodd" d="M8.99998 14C6.14373 14 3.54969 12.4328 1.21785 9.29846C1.08608 9.12135 1.08608 8.87877 1.21784 8.70165C3.5497 5.56724 6.14371 4 8.99998 4C11.8562 4 14.4503 5.56718 16.7821 8.70154C16.9139 8.87865 16.9139 9.12123 16.7821 9.29835C14.4503 12.4328 11.8563 14 8.99998 14ZM8.99998 12.5C11.0618 12.5 13.0618 11.3333 15 9C13.0618 6.66667 11.0618 5.5 8.99998 5.5C6.93812 5.5 4.93812 6.66667 2.99998 9C4.93812 11.3333 6.93812 12.5 8.99998 12.5ZM8.99998 11.75C7.4812 11.75 6.24998 10.5188 6.24998 9C6.24998 7.48122 7.4812 6.25 8.99998 6.25C10.5188 6.25 11.75 7.48122 11.75 9C11.75 10.5188 10.5188 11.75 8.99998 11.75ZM8.99998 10.25C9.69034 10.25 10.25 9.69036 10.25 9C10.25 8.30964 9.69034 7.75 8.99998 7.75C8.30963 7.75 7.74998 8.30964 7.74998 9C7.74998 9.69036 8.30963 10.25 8.99998 10.25Z" fill="black" />
</svg>
