<svg width="18" height="18" viewBox="0 0 18 18" fill="none" xmlns="http://www.w3.org/2000/svg">
<path fill-rule="evenodd" clip-rule="evenodd" d="M8.99998 14C6.14373 14 3.54969 12.4328 1.21785 9.29846C1.08608 9.12135 1.08608 8.87877 1.21784 8.70165C3.5497 5.56724 6.14371 4 8.99998 4C11.8562 4 14.4503 5.56718 16.7821 8.70154C16.9139 8.87865 16.9139 9.12123 16.7821 9.29835C14.4503 12.4328 11.8563 14 8.99998 14ZM8.99998 12.5C10.933 12.5 12.5 10.933 12.5 9C12.5 7.067 10.933 5.5 8.99998 5.5C7.06699 5.5 5.49998 7.067 5.49998 9C5.49998 10.933 7.06699 12.5 8.99998 12.5ZM8.99998 11C7.89542 11 6.99998 10.1046 6.99998 9C6.99998 7.89543 7.89542 7 8.99998 7C10.1046 7 11 7.89543 11 9C11 10.1046 10.1046 11 8.99998 11Z" fill="black" />
</svg>
