<svg width="18" height="18" viewBox="0 0 18 18" fill="none" xmlns="http://www.w3.org/2000/svg">
<path fill-rule="evenodd" clip-rule="evenodd" d="M2 8.87919C2 10.6506 2.94285 12.2452 4.41851 13.3232C4.53711 13.4084 4.61468 13.5485 4.61468 13.7064C4.61468 13.7583 4.60352 13.8063 4.58999 13.8561L4.27465 15.0421C4.27099 15.056 4.2668 15.0701 4.26258 15.0842C4.24989 15.1267 4.23688 15.1703 4.23688 15.2142C4.23688 15.3437 4.34117 15.4491 4.47026 15.4491C4.52099 15.4491 4.56236 15.43 4.60532 15.4054L6.13746 14.5136C6.2528 14.4465 6.37478 14.4054 6.50905 14.4054C6.58087 14.4054 6.64987 14.4163 6.71492 14.4363C7.42992 14.6435 8.20129 14.7586 8.99983 14.7586C12.8656 14.7586 16 12.1265 16 8.87919C16 5.63193 12.8656 3 8.99983 3C5.13385 3 2 5.63193 2 8.87919Z" fill="black" />
</svg>
