<svg width="18" height="18" viewBox="0 0 18 18" fill="none" xmlns="http://www.w3.org/2000/svg">
<path fill-rule="evenodd" clip-rule="evenodd" d="M4.58999 13.8561C4.60352 13.8063 4.61468 13.7583 4.61468 13.7064C4.61468 13.6926 4.61409 13.6789 4.61292 13.6654C4.6008 13.5244 4.52674 13.401 4.41851 13.3232C2.94285 12.2452 2 10.6506 2 8.87919C2 5.63193 5.13385 3 8.99983 3C12.8656 3 16 5.63193 16 8.87919C16 12.1265 12.8656 14.7586 8.99983 14.7586C8.20129 14.7586 7.42992 14.6435 6.71492 14.4363C6.64987 14.4163 6.58087 14.4054 6.50906 14.4054C6.37478 14.4054 6.2528 14.4465 6.13746 14.5136L4.60532 15.4054C4.56237 15.43 4.52099 15.4491 4.47026 15.4491C4.34117 15.4491 4.23688 15.3437 4.23688 15.2142C4.23688 15.1703 4.24989 15.1267 4.26258 15.0842C4.2668 15.0701 4.27099 15.056 4.27465 15.0421L4.58999 13.8561ZM7.13996 12.9977C7.71937 13.1649 8.34763 13.2586 8.99983 13.2586C12.2931 13.2586 14.5 11.0634 14.5 8.87919C14.5 6.69503 12.2932 4.5 8.99983 4.5C5.70641 4.5 3.5 6.69492 3.5 8.87919C3.5 10.0888 4.14187 11.2623 5.30054 12.1099C6.03558 12.6428 6.29446 12.7449 7.13996 12.9977Z" fill="black" />
</svg>
