<svg width="18" height="18" viewBox="0 0 18 18" fill="none" xmlns="http://www.w3.org/2000/svg">
<path fill-rule="evenodd" clip-rule="evenodd" d="M16 7.3406C16 7.97236 15.8683 8.60581 15.6087 9.23689C14.9109 10.9326 13.2898 12.6135 10.7604 14.314C10.6494 14.3886 10.4514 14.5159 10.1621 14.6989C9.45425 15.1464 8.55223 15.1473 7.84356 14.7011C7.50043 14.4851 7.50043 14.4851 7.41809 14.433C3.84031 12.0662 2 9.72183 2 7.3406C2.0004 7.26657 2.0004 7.26657 2.00247 7.2429C2.00041 7.17137 2.00041 7.17137 2 7.09951C2 4.83522 3.83737 3 6.10345 3C7.21234 3 8.24503 3.44343 9 4.19522C9.75497 3.44343 10.7877 3 11.8966 3C14.1626 3 16 4.83522 16 7.09951C15.9996 7.16198 15.9996 7.17015 15.9982 7.21819C15.9996 7.26778 15.9996 7.27603 16 7.3406Z" fill="#6B6B6B"/>
</svg>
