<svg width="18" height="18" viewBox="0 0 18 18" fill="none" xmlns="http://www.w3.org/2000/svg">
<path fill-rule="evenodd" clip-rule="evenodd" d="M14.5501 7.24243L14.5501 7.19294C14.5508 7.16974 14.5511 7.1581 14.5513 7.14646C14.5515 7.13474 14.5516 7.12302 14.5517 7.09951C14.5517 5.63546 13.3632 4.44828 11.8966 4.44828C10.9539 4.44828 10.0978 4.94211 9.62005 5.734L9 6.76183L8.37995 5.734C7.90224 4.94211 7.04609 4.44828 6.10345 4.44828C4.63685 4.44828 3.44828 5.63546 3.44828 7.09951C3.44855 7.14638 3.44855 7.14638 3.4499 7.24243V7.24243C3.44855 7.29051 3.44855 7.29051 3.44828 7.3406C3.44828 9.11791 5.00363 11.0992 8.20345 13.2163L8.61521 13.4755C8.85143 13.6243 9.15211 13.624 9.38804 13.4748C9.66638 13.2988 9.85597 13.1769 9.95238 13.1121L9.95684 13.1091C10.1397 13.3468 10.4269 13.5 10.75 13.5H11.9035C11.5457 13.7709 11.1647 14.0422 10.7604 14.314C10.6494 14.3886 10.4514 14.5159 10.1621 14.6989C9.45425 15.1464 8.55223 15.1473 7.84356 14.7011L7.84248 14.7005C7.50054 14.4852 7.50034 14.485 7.41817 14.4331L7.41809 14.433C3.84031 12.0662 2 9.72183 2 7.3406V7.34059C2.00031 7.28457 2.00038 7.27094 2.00129 7.25737L2.00247 7.2429L2.00247 7.24286C2.00144 7.2072 2.00093 7.18933 2.00062 7.17145C2.00031 7.15349 2.00021 7.13552 2 7.09951V7.09951C2 4.83522 3.83737 3 6.10345 3C7.21234 3 8.24503 3.44343 9 4.19522C9.75497 3.44343 10.7877 3 11.8966 3C14.1626 3 16 4.83522 16 7.09951C15.9996 7.16198 15.9996 7.17015 15.9982 7.21819C15.9996 7.26775 15.9996 7.27602 16 7.34049V7.34055V7.3406C16 7.54746 15.9859 7.7545 15.9578 7.96159C15.834 7.5499 15.452 7.25 15 7.25H14.5503L14.5501 7.24243ZM13.2891 9C13.2891 8.72386 13.5129 8.5 13.7891 8.5H14.2891C14.5652 8.5 14.7891 8.72386 14.7891 9V10.75H16.5C16.7761 10.75 17 10.9739 17 11.25V11.75C17 12.0261 16.7761 12.25 16.5 12.25H14.7891V14C14.7891 14.2761 14.5652 14.5 14.2891 14.5H13.7891C13.5129 14.5 13.2891 14.2761 13.2891 14V12.25H11.5C11.2239 12.25 11 12.0261 11 11.75V11.25C11 10.9739 11.2239 10.75 11.5 10.75H13.2891V9Z" fill="black" />
</svg>
