<svg width="18" height="18" viewBox="0 0 18 18" fill="none" xmlns="http://www.w3.org/2000/svg">
<path d="M7.00001 3C7.00001 1.89543 7.89544 1 9.00001 1C10.1046 1 11 1.89543 11 3C11 4.10457 10.1046 5 9.00001 5C7.89544 5 7.00001 4.10457 7.00001 3Z" fill="black" />
<path d="M5.66307 15.8586C5.57701 16.461 6.04447 17 6.65302 17H11.347C11.9555 17 12.423 16.461 12.3369 15.8586L11.1227 7.35858C11.0523 6.86593 10.6304 6.5 10.1327 6.5H7.86731C7.36966 6.5 6.94773 6.86593 6.87736 7.35858L5.66307 15.8586Z" fill="black" />
</svg>
