<svg width="18" height="18" viewBox="0 0 18 18" fill="none" xmlns="http://www.w3.org/2000/svg">
<path fill-rule="evenodd" clip-rule="evenodd" d="M7.69644 6.50856C7.27396 6.56412 6.9267 6.88478 6.84515 7.31289L5.2261 15.8129C5.10873 16.4291 5.58113 17 6.20844 17H11.7915C12.4188 17 12.8912 16.4291 12.7739 15.8129L11.1548 7.31289C11.0733 6.88478 10.726 6.56412 10.3035 6.50856C10.2606 6.50291 10.2168 6.5 10.1725 6.5H7.82749C7.78316 6.5 7.73941 6.50291 7.69644 6.50856ZM7.9991 5C8.29735 5.15954 8.6381 5.25 8.99999 5.25C9.36187 5.25 9.70263 5.15954 10.0009 5C10.6699 4.64214 11.125 3.93672 11.125 3.125C11.125 1.95139 10.1736 1 8.99999 1C7.82638 1 6.87499 1.95139 6.87499 3.125C6.87499 3.93672 7.33011 4.64214 7.9991 5ZM6.81267 15.5H11.1873L9.75873 8H8.24124L6.81267 15.5ZM8.99999 2.5C8.65481 2.5 8.37499 2.77982 8.37499 3.125C8.37499 3.47018 8.65481 3.75 8.99999 3.75C9.34516 3.75 9.62499 3.47018 9.62499 3.125C9.62499 2.77982 9.34517 2.5 8.99999 2.5Z" fill="black" />
</svg>
