<svg width="24" height="24" viewBox="0 0 24 24" fill="none" xmlns="http://www.w3.org/2000/svg">
<path fill-rule="evenodd" clip-rule="evenodd" d="M12.3914 9.29049C12.1913 9.04184 11.8126 9.04184 11.6125 9.29049L9.28136 12.1866C9.01805 12.5137 9.25091 13.0001 9.67086 13.0001H11.0004V17.5001C11.0004 17.7762 11.2243 18.0001 11.5004 18.0001H12.5004C12.7766 18.0001 13.0004 17.7762 13.0004 17.5001V13.0001H14.333C14.753 13.0001 14.9859 12.5137 14.7225 12.1866L12.3914 9.29049Z" fill="black" fill-opacity="0.88"/>
<path d="M5.98959 19.0104C5.79433 19.2057 5.4766 19.2066 5.29248 19.0008C4.22102 17.8031 3.48762 16.3379 3.17293 14.7558C2.82567 13.01 3.0039 11.2004 3.68508 9.55585C4.36627 7.91131 5.51983 6.50571 6.99987 5.51677C8.47991 4.52784 10.22 4 12 4C13.78 4 15.5201 4.52784 17.0001 5.51677C18.4802 6.50571 19.6337 7.91131 20.3149 9.55585C20.9961 11.2004 21.1743 13.01 20.8271 14.7558C20.5124 16.3379 19.779 17.8031 18.7075 19.0008C18.5234 19.2066 18.2057 19.2057 18.0104 19.0104L17.4842 18.4842C17.2889 18.2889 17.2904 17.9734 17.4717 17.7652C18.3007 16.8133 18.869 15.6592 19.1164 14.4155C19.3963 13.008 19.2527 11.5492 18.7035 10.2233C18.1543 8.89751 17.2243 7.76431 16.0311 6.96703C14.8379 6.16975 13.4351 5.74421 12 5.74421C10.5649 5.74421 9.16211 6.16975 7.9689 6.96703C6.77569 7.76431 5.8457 8.89751 5.29652 10.2233C4.74735 11.5492 4.60366 13.008 4.88363 14.4155C5.131 15.6592 5.69931 16.8133 6.52827 17.7652C6.70962 17.9734 6.71109 18.2889 6.51583 18.4842L5.98959 19.0104Z" fill="black" fill-opacity="0.88"/>
</svg>
