<svg width="16" height="16" viewBox="0 0 16 16" fill="none" xmlns="http://www.w3.org/2000/svg">
<path d="M9 8.5H5.23529C2.68255 8.5 1.64121 10.6774 1.51358 13.0002C1.49843 13.2759 1.72363 13.5 1.99978 13.5C4.01564 13.5 6.29412 13.5 6.29412 13.5H10" stroke="black" stroke-opacity="0.36"/>
<path fill-rule="evenodd" clip-rule="evenodd" d="M7.5 7C6.11929 7 5 5.88071 5 4.5C5 3.11929 6.11929 2 7.5 2C8.88071 2 10 3.11929 10 4.5C10 5.88071 8.88071 7 7.5 7Z" stroke="black" stroke-opacity="0.36"/>
<path d="M12.5 10.5V13M12.5 10.5H10M12.5 10.5H15M12.5 10.5V8" stroke="black" stroke-opacity="0.36"/>
</svg>
