<svg width="16" height="16" viewBox="0 0 16 16" fill="none" xmlns="http://www.w3.org/2000/svg">
<path d="M13.5 6.6066C13.4992 6.46497 13.502 6.32327 13.4925 6.18182C13.3731 4.40508 11.8473 3 9.98276 3C9.03228 3 8.14712 3.36844 7.5 3.99311C6.85288 3.36844 5.96772 3 5.01724 3C3.07488 3 1.5 4.52488 1.5 6.40627C1.50035 6.46599 1.50035 6.46599 1.50212 6.52542C1.50035 6.54508 1.50035 6.54508 1.5 6.6066C1.5 8.58516 3.07741 10.5331 6.14408 12.4997C6.21465 12.5429 6.21465 12.5429 6.50877 12.7225C7.1162 13.0932 7.88936 13.0925 8.49604 12.7206C8.78313 12.5446 9.06745 12.3655 9.34615 12.1769" stroke="black" stroke-opacity="0.36"/>
<path d="M12.5 10.5V13M12.5 10.5H10M12.5 10.5H15M12.5 10.5V8" stroke="black" stroke-opacity="0.36"/>
</svg>
