<svg width="16" height="16" viewBox="0 0 16 16" fill="none" xmlns="http://www.w3.org/2000/svg">
<path d="M12.5 10.5V13M12.5 10.5H10M12.5 10.5H15M12.5 10.5V8" stroke="black" stroke-opacity="0.36"/>
<path d="M12.5 6.58333V3C12.5 2.44772 12.0523 2 11.5 2H3C2.44772 2 2 2.44771 2 3V12C2 12.5523 2.44772 13 3 13H10.2174" stroke="black" stroke-opacity="0.36"/>
<path fill-rule="evenodd" clip-rule="evenodd" d="M6 5.90212C6 5.50941 6.43198 5.26998 6.765 5.47812L9.3216 7.076C9.63494 7.27183 9.63494 7.72817 9.3216 7.924L6.765 9.52188C6.43198 9.73002 6 9.49059 6 9.09788V5.90212Z" fill="black" fill-opacity="0.36"/>
</svg>
