<svg width="24" height="24" viewBox="0 0 24 24" fill="none" xmlns="http://www.w3.org/2000/svg">
<path fill-rule="evenodd" clip-rule="evenodd" d="M19.35 13.5C19.4484 13.0153 19.5 12.5137 19.5 12C19.5 11.0326 19.3169 10.1081 18.9834 9.25905L14.7424 13.5H19.35ZM12.8789 15L16.1362 18.2573C17.3359 17.4627 18.2939 16.3322 18.8759 15H12.8789ZM14.7409 18.9834L10.5002 14.7426V19.35C10.9848 19.4484 11.4864 19.5 12 19.5C12.9673 19.5 13.8919 19.3169 14.7409 18.9834ZM7.86364 5.74277L11.1209 9L5.12407 9C5.70612 7.66782 6.66398 6.53741 7.86364 5.74277ZM13.4999 9.25773L9.25889 5.0167C10.108 4.68316 11.0326 4.5 12 4.5C12.5137 4.5 13.0153 4.55164 13.4999 4.65001V9.25773ZM5.0167 14.7411L9.25781 10.5L4.65003 10.5C4.55164 10.9847 4.5 11.4863 4.5 12C4.5 12.9674 4.68316 13.892 5.0167 14.7411ZM9.00016 18.876C7.66791 18.294 6.53744 17.3361 5.74277 16.1364L9.00016 12.879V18.876ZM14.9999 11.1212L18.2573 7.86378C17.4627 6.66403 16.3322 5.7061 14.9999 5.12403V11.1212ZM12 21C16.9706 21 21 16.9706 21 12C21 7.02944 16.9706 3 12 3C7.02944 3 3 7.02944 3 12C3 16.9706 7.02944 21 12 21ZM12 13.75C12.9665 13.75 13.75 12.9665 13.75 12C13.75 11.0335 12.9665 10.25 12 10.25C11.0335 10.25 10.25 11.0335 10.25 12C10.25 12.9665 11.0335 13.75 12 13.75Z" fill="black"/>
</svg>
