<svg width="24" height="24" viewBox="0 0 24 24" fill="none" xmlns="http://www.w3.org/2000/svg">
<path fill-rule="evenodd" clip-rule="evenodd" d="M19.0806 5.93544C18.8628 5.39005 17.4077 7.14667 17.2001 7.39052C15.7246 9.1239 14.3787 11.183 13.2899 13.1752L13.4733 13.4612C14.2774 14.7149 14.9447 16.0437 15.8655 17.2233C16.4143 17.9262 16.5449 18.2051 16.9698 17.3527C18.2731 14.7387 18.9371 11.6254 19.188 8.73166C19.3189 7.2235 19.2213 6.28756 19.0806 5.93544ZM10.6957 13.1471C9.594 11.1338 8.29058 9.14178 6.79991 7.39052C6.63649 7.19853 5.12533 5.41988 4.91936 5.93548C4.77867 6.28759 4.68115 7.22351 4.81195 8.73167C5.06294 11.6254 5.72693 14.7387 7.03016 17.3527C7.45514 18.2051 7.58575 17.9262 8.13452 17.2233C9.01968 16.0894 9.77446 14.8197 10.4674 13.5616L10.6957 13.1471ZM15.8675 6.25621C16.7841 5.17935 17.6044 4.4605 18.3476 4.15986C19.3726 3.7452 20.249 4.14298 20.7058 5.28624C21.9348 8.36205 19.0579 20 16.8008 20C16.0705 20 15.3387 19.3923 14.486 18.3001C13.5294 17.0747 12.8349 15.7073 12.0002 14.4059C11.2644 15.7419 10.4521 17.0984 9.51397 18.3001C8.66133 19.3923 7.92946 20 7.19919 20C4.94211 20 2.06524 8.36205 3.29424 5.28628C3.75096 4.14298 4.62736 3.7452 5.65243 4.15986C6.39564 4.4605 7.2159 5.17935 8.13251 6.25621C9.51344 7.87854 10.7134 9.66105 11.7832 11.5015C11.8593 11.6323 11.9319 11.7606 12.0003 11.8857C12.0718 11.755 12.1439 11.6271 12.2165 11.5015C13.2643 9.69033 14.5178 7.84188 15.8675 6.25621Z" fill="black" fill-opacity="0.88"/>
</svg>
